<svg width="49" height="48" viewBox="0 0 49 48" fill="none" xmlns="http://www.w3.org/2000/svg">
<path d="M47 16.4835C46.5907 17.8527 46.1672 19.2219 45.772 20.5981C44.3745 25.3315 42.9912 30.0507 41.622 34.7559C41.599 34.9365 41.5396 35.1105 41.4474 35.2675C41.3553 35.4244 41.2323 35.5611 41.0858 35.6693C40.9394 35.7775 40.7726 35.8548 40.5955 35.8968C40.4184 35.9387 40.2346 35.9444 40.0552 35.9134H16.7647C16.5863 35.9422 16.4039 35.9347 16.2284 35.8913C16.0529 35.8479 15.888 35.7694 15.7437 35.6606C15.5993 35.5518 15.4784 35.415 15.3882 35.2583C15.2981 35.1016 15.2406 34.9283 15.2191 34.7488C13.1394 27.2677 11.0598 19.7888 8.98008 12.3124L8.88833 12.1712H3.31979C2.96976 12.1712 2.63407 12.0322 2.38656 11.7846C2.13905 11.5371 2 11.2014 2 10.8514C2 10.5014 2.13905 10.1657 2.38656 9.91817C2.63407 9.67066 2.96976 9.53161 3.31979 9.53161H9.82701C10.1538 9.50164 10.48 9.59514 10.7412 9.79371C11.0025 9.99228 11.1799 10.2815 11.2386 10.6044C11.6338 12.0159 12.0149 13.4275 12.4101 14.839H16.2425C16.8847 14.839 17.534 14.839 18.1763 14.839C18.3021 14.8199 18.4305 14.8494 18.5353 14.9215C18.6402 14.9936 18.7137 15.1029 18.7409 15.2272C19.6031 17.4402 21.1135 19.3414 23.0742 20.6818C25.0349 22.0221 27.3547 22.7393 29.7298 22.7393C32.1049 22.7393 34.4246 22.0221 36.3853 20.6818C38.3461 19.3414 39.8564 17.4402 40.7186 15.2272C40.7475 15.0967 40.8247 14.982 40.9347 14.9061C41.0446 14.8302 41.1792 14.7986 41.3115 14.8178C42.6595 14.8178 44.0075 14.8602 45.3556 14.8178C45.6976 14.77 46.0458 14.8387 46.3441 15.0128C46.6424 15.1869 46.8734 15.4563 47 15.7777V16.4835ZM28.3959 28.0228H32.5387C34.2114 28.0228 35.8841 28.0228 37.5568 28.0228C37.7808 28.0401 38.0055 27.9996 38.2094 27.9052C38.4133 27.8108 38.5895 27.6656 38.7212 27.4836C38.853 27.3016 38.9358 27.0888 38.9617 26.8657C38.9877 26.6425 38.9559 26.4164 38.8695 26.209C38.749 25.9419 38.5484 25.7188 38.2955 25.5709C38.0426 25.4229 37.7499 25.3573 37.458 25.3832C31.4354 25.3832 25.4175 25.3832 19.4043 25.3832H19.1008C18.8915 25.3989 18.6888 25.4643 18.5098 25.574C18.3307 25.6837 18.1804 25.8345 18.0714 26.014C17.9623 26.1934 17.8977 26.3963 17.8828 26.6057C17.8679 26.8152 17.9032 27.0252 17.9857 27.2182C18.1095 27.4814 18.3115 27.7 18.5641 27.844C18.8168 27.988 19.1078 28.0505 19.3973 28.0228H28.3959ZM28.3959 33.302H29.6733C31.4024 33.302 33.1316 33.302 34.8678 33.302C35.0879 33.3201 35.309 33.2829 35.5111 33.194C35.7131 33.105 35.8898 32.967 36.0251 32.7925C36.1604 32.6179 36.25 32.4124 36.2857 32.1945C36.3215 31.9766 36.3023 31.7532 36.2299 31.5446C36.1185 31.267 35.9217 31.0319 35.668 30.8733C35.4143 30.7147 35.1168 30.6409 34.8184 30.6624H23.1802C22.7285 30.6624 22.2698 30.6624 21.8181 30.6624C21.5974 30.6604 21.3798 30.7141 21.1853 30.8184C20.9909 30.9228 20.8259 31.0745 20.7056 31.2595C20.5853 31.4445 20.5136 31.6569 20.4971 31.877C20.4806 32.097 20.5198 32.3177 20.6112 32.5186C20.7287 32.7745 20.923 32.9875 21.1671 33.1279C21.4112 33.2683 21.693 33.3292 21.9733 33.302H28.3959Z" fill="#3F75BE"/>
<path d="M30.7672 1.51412C31.2401 1.6341 31.7341 1.71173 32.1787 1.867C35.9758 3.1021 38.2695 5.68523 38.8341 9.63049C39.0225 10.8471 38.9659 12.0891 38.6675 13.2834C38.3691 14.4778 37.8351 15.6005 37.0966 16.5856C36.3582 17.5706 35.4304 18.3982 34.3676 19.0196C33.3049 19.641 32.1287 20.0437 30.9081 20.2041C29.6875 20.3645 28.4471 20.2793 27.2599 19.9536C26.0727 19.6278 24.9626 19.0681 23.9948 18.3072C23.0269 17.5464 22.2209 16.5998 21.6241 15.5231C21.0273 14.4463 20.6517 13.2611 20.5194 12.0372C20.2016 9.59855 20.8586 7.13299 22.3479 5.17595C23.8371 3.21891 26.0383 1.9284 28.4734 1.58469C28.5406 1.56541 28.6047 1.53691 28.664 1.5L30.7672 1.51412ZM28.4734 9.53168C28.0358 9.53168 27.6759 9.53168 27.3089 9.53168C27.1241 9.51255 26.9374 9.53243 26.7608 9.59004C26.5841 9.64765 26.4216 9.7417 26.2836 9.86611C26.1457 9.99052 26.0354 10.1425 25.9599 10.3123C25.8844 10.482 25.8454 10.6657 25.8454 10.8515C25.8454 11.0372 25.8844 11.2209 25.9599 11.3907C26.0354 11.5604 26.1457 11.7124 26.2836 11.8368C26.4216 11.9612 26.5841 12.0553 26.7608 12.1129C26.9374 12.1705 27.1241 12.1904 27.3089 12.1713H28.4523V13.3711C28.4331 13.5559 28.453 13.7426 28.5106 13.9192C28.5682 14.0958 28.6623 14.2584 28.7867 14.3963C28.9111 14.5343 29.0631 14.6446 29.2328 14.7201C29.4026 14.7956 29.5863 14.8346 29.772 14.8346C29.9578 14.8346 30.1415 14.7956 30.3113 14.7201C30.481 14.6446 30.633 14.5343 30.7574 14.3963C30.8818 14.2584 30.9759 14.0958 31.0335 13.9192C31.0911 13.7426 31.111 13.5559 31.0918 13.3711C31.0918 12.9829 31.0918 12.5947 31.0918 12.1713C31.5365 12.1713 31.9317 12.1713 32.3199 12.1713C32.6699 12.1713 33.0056 12.0322 33.2531 11.7847C33.5006 11.5372 33.6397 11.2015 33.6397 10.8515C33.6397 10.5014 33.5006 10.1658 33.2531 9.91824C33.0056 9.67073 32.6699 9.53168 32.3199 9.53168C31.9317 9.53168 31.5365 9.53168 31.113 9.53168C31.113 9.09411 31.113 8.69887 31.113 8.30364C31.113 7.95361 30.974 7.61791 30.7265 7.3704C30.4789 7.1229 30.1432 6.98385 29.7932 6.98385C29.4432 6.98385 29.1075 7.1229 28.86 7.3704C28.6125 7.61791 28.4734 7.95361 28.4734 8.30364C28.4805 8.69887 28.4875 9.08705 28.4875 9.53168H28.4734Z" fill="#3F75BE"/>
<path d="M40.2881 42.5195C40.3106 43.054 40.2248 43.5875 40.0358 44.088C39.8469 44.5884 39.5586 45.0455 39.1884 45.4317C38.8182 45.8179 38.3737 46.1251 37.8816 46.3351C37.3895 46.545 36.8601 46.6532 36.3251 46.6532C35.7902 46.6532 35.2607 46.545 34.7687 46.3351C34.2766 46.1251 33.8321 45.8179 33.4619 45.4317C33.0917 45.0455 32.8034 44.5884 32.6144 44.088C32.4255 43.5875 32.3397 43.054 32.3622 42.5195C32.4054 41.4974 32.8418 40.5315 33.5802 39.8235C34.3187 39.1156 35.3021 38.7203 36.3251 38.7203C37.3481 38.7203 38.3316 39.1156 39.0701 39.8235C39.8085 40.5315 40.2449 41.4974 40.2881 42.5195Z" fill="#3F75BE"/>
<path d="M16.5177 42.5194C16.5219 41.9995 16.6285 41.4854 16.8313 41.0066C17.0341 40.5279 17.3293 40.0937 17.6999 39.729C18.0705 39.3643 18.5093 39.0762 18.9913 38.881C19.4732 38.6859 19.9889 38.5876 20.5089 38.5918C21.0288 38.596 21.5429 38.7025 22.0216 38.9053C22.5004 39.1082 22.9346 39.4033 23.2993 39.7739C23.664 40.1446 23.9521 40.5834 24.1473 41.0653C24.3424 41.5473 24.4407 42.063 24.4365 42.5829C24.4281 43.633 24.0028 44.6368 23.2544 45.3733C22.5059 46.1099 21.4954 46.519 20.4454 46.5106C19.3953 46.5021 18.3915 46.0769 17.655 45.3284C16.9184 44.58 16.5093 43.5695 16.5177 42.5194Z" fill="#3F75BE"/>
</svg>
