<svg width="48" height="49" viewBox="0 0 48 49" fill="none" xmlns="http://www.w3.org/2000/svg">
<path d="M24.5325 45.4075V44.905C24.5325 38.405 24.5325 31.89 24.5325 25.36C24.514 25.2338 24.5378 25.105 24.6002 24.9937C24.6626 24.8825 24.7601 24.795 24.8775 24.745C31.4425 21.455 38.0025 18.155 44.5575 14.845L44.9025 14.6875C44.9025 14.8525 44.9025 14.98 44.9025 15.1075C44.9025 21.6575 44.9025 28.205 44.9025 34.75C44.9212 34.8694 44.8987 34.9916 44.8387 35.0966C44.7788 35.2016 44.6849 35.283 44.5725 35.3275C38.0225 38.6125 31.48 41.9025 24.945 45.1975L24.5325 45.4075Z" fill="#3F75BE"/>
<path d="M3.0375 14.68L3.825 15.0775C5.91 16.12 7.9875 17.1775 10.08 18.205C10.2276 18.2604 10.3512 18.3657 10.4293 18.5027C10.5074 18.6397 10.5351 18.7997 10.5075 18.955C10.5075 21.1525 10.5075 23.35 10.5075 25.5475V26.1175C11.2575 26.1175 11.91 26.1625 12.585 26.1175C12.8839 26.0838 13.1864 26.1275 13.4635 26.2444C13.7406 26.3613 13.983 26.5474 14.1675 26.785C14.9175 27.5725 15.6675 28.285 16.485 29.095V21.52C16.665 21.595 16.785 21.64 16.905 21.7L23.0775 24.7975C23.1868 24.8326 23.281 24.9035 23.3449 24.9988C23.4089 25.094 23.4389 25.2081 23.43 25.3225C23.43 31.9625 23.43 38.605 23.43 45.25C23.4339 45.3174 23.4339 45.3851 23.43 45.4525L22.9725 45.235L3.375 35.3425C3.15 35.23 3 35.14 3 34.84C3 28.195 3 21.5525 3 14.9125C3.015 14.905 3.0225 14.815 3.0375 14.68Z" fill="#3F75BE"/>
<path d="M17.0925 20.4925L21.09 18.355C26.215 15.62 31.33 12.885 36.435 10.15C36.6266 10.0491 36.8502 10.0275 37.0575 10.09C39.3975 11.245 41.73 12.43 44.0625 13.6075C44.1335 13.6469 44.2013 13.6921 44.265 13.7425L42.765 14.4925L24.435 23.77C24.3053 23.8458 24.1577 23.8857 24.0075 23.8857C23.8572 23.8857 23.7097 23.8458 23.58 23.77C21.585 22.7425 19.5825 21.7375 17.58 20.7325L17.0925 20.4925Z" fill="#3F75BE"/>
<path d="M3.62251 13.7275L7.37251 11.845L23.565 3.65499C23.6859 3.57745 23.8264 3.53624 23.97 3.53624C24.1136 3.53624 24.2542 3.57745 24.375 3.65499C26.49 4.73499 28.62 5.79999 30.8025 6.89499C30.7015 6.97317 30.5964 7.04576 30.4875 7.11248L11.4375 17.2975C11.3551 17.3442 11.2637 17.373 11.1694 17.382C11.075 17.3911 10.9798 17.3802 10.89 17.35C8.49001 16.1875 6.10501 14.98 3.62251 13.7275Z" fill="#3F75BE"/>
</svg>
