<svg width="44" height="32" viewBox="0 0 44 32" fill="none" xmlns="http://www.w3.org/2000/svg">
<path d="M30.6012 6.38834H34.2795C35.8198 6.38834 37.3601 6.39502 38.9004 6.38834C39.6397 6.383 40.1575 6.7166 40.4537 7.38915C41.6099 10.0321 42.7963 12.6618 43.8725 15.3382C44.0993 15.902 43.9682 16.6436 43.904 17.2944C43.6418 19.9427 43.3416 22.5884 43.0519 25.234C42.9706 25.9783 42.9077 26.7266 42.7792 27.4615C42.6285 28.318 42.0399 28.787 41.1944 28.7977C40.3095 28.8043 39.4247 28.8137 38.5399 28.7977C38.2226 28.7896 38.0706 28.8845 37.9159 29.1892C37.0061 30.9797 35.5563 31.9631 33.5572 31.9952C31.8715 32.0246 30.3876 30.9262 29.7911 29.2359C29.6705 28.8925 29.5185 28.7923 29.1711 28.7936C25.4849 28.807 21.7983 28.807 18.1113 28.7936C17.7717 28.7936 17.6092 28.8965 17.4558 29.2132C16.276 31.6598 13.3921 32.7074 11.2043 31.4928C10.1556 30.9102 9.52636 29.9882 9.17898 28.8017C7.78596 28.8017 6.39469 28.8017 5.00517 28.8017C4.7929 28.8136 4.57999 28.8047 4.3694 28.7749C3.58288 28.6106 3.05853 27.8196 3.15029 26.9751C3.20266 26.601 3.38359 26.258 3.66086 26.0072C3.93813 25.7564 4.29373 25.614 4.66434 25.6055C5.17165 25.5948 5.68027 25.6055 6.18757 25.6055C7.14844 25.5881 7.86025 24.9013 7.86156 24.0021C7.86287 23.1028 7.14844 22.4147 6.18889 22.3986C5.19 22.3866 4.18981 22.3986 3.19092 22.3986C2.24054 22.3986 1.56544 21.7118 1.57331 20.7751C1.57331 19.8705 2.25627 19.2024 3.18568 19.2011C7.29919 19.2011 11.4123 19.2011 15.5249 19.2011C16.356 19.2011 16.9603 18.8123 17.195 18.1428C17.5738 17.0645 16.8187 16.0129 15.6311 16.0049C13.5665 15.9902 11.5018 16.0049 9.43722 16.0049C9.09959 16.0094 8.76966 15.902 8.49709 15.6988C8.22451 15.4957 8.02402 15.2078 7.92579 14.8785C7.81793 14.5601 7.81766 14.214 7.92503 13.8953C8.0324 13.5767 8.24123 13.3038 8.5183 13.1201C8.83693 12.9302 9.19798 12.8267 9.567 12.8194C13.1221 12.7981 16.6772 12.8074 20.2336 12.8061C21.045 12.8061 21.6414 12.4373 21.8918 11.7986C22.2851 10.7804 21.6021 9.70077 20.4944 9.60991C20.3319 9.59788 20.1667 9.60991 20.0028 9.60991C14.9071 9.60991 9.81126 9.60991 4.71547 9.60991C4.32653 9.62583 3.94561 9.49418 3.64636 9.24043C3.34711 8.98668 3.15079 8.62885 3.09535 8.23612C3.03992 7.84339 3.1293 7.44366 3.34623 7.11421C3.56315 6.78475 3.8922 6.54898 4.26977 6.45248C4.47627 6.40327 4.68847 6.38348 4.9003 6.39369C8.43965 6.39369 11.979 6.39369 15.5184 6.39369C16.3324 6.39369 16.9262 6.02891 17.1779 5.39021C17.6039 4.3119 16.8436 3.20687 15.6403 3.19752C13.674 3.18148 11.7077 3.19752 9.74135 3.19752C9.11868 3.19752 8.49602 3.19752 7.87335 3.19752C7.66498 3.20173 7.45792 3.16287 7.26468 3.08328C7.07144 3.00368 6.89603 2.88501 6.74902 2.73441C6.60201 2.58382 6.48646 2.40442 6.40934 2.20706C6.33222 2.00969 6.29513 1.79844 6.30031 1.58606C6.30031 0.67745 6.97672 0.00133619 7.90088 0C15.0949 0 22.2881 0 29.4804 0C30.4977 0 31.1728 0.724217 31.0823 1.77046C30.9434 3.28303 30.7664 4.80362 30.6012 6.38834ZM40.7906 17.5843C40.7906 17.0311 40.9414 16.4632 40.7644 16.0343C39.915 13.9672 38.9803 11.9362 38.0601 9.89986C38.023 9.8264 37.97 9.76257 37.905 9.71323C37.84 9.6639 37.7648 9.63039 37.6852 9.61525C36.5565 9.59388 35.4266 9.57918 34.2979 9.61525C33.4747 9.64332 32.8494 10.1497 32.7576 10.8953C32.5518 12.5776 32.3644 14.2639 32.2333 15.9528C32.214 16.1584 32.2373 16.3657 32.3015 16.5615C32.3657 16.7574 32.4694 16.9373 32.606 17.0897C32.7426 17.2422 32.909 17.3638 33.0945 17.4467C33.28 17.5295 33.4805 17.5719 33.6831 17.571C36.0033 17.6084 38.3262 17.5843 40.7906 17.5843ZM14.8669 26.8535C14.8773 26.0945 14.4212 25.5387 13.8417 25.6028C12.8704 25.711 12.038 26.8268 12.1992 27.8049C12.3303 28.6173 12.9255 28.954 13.674 28.6427C14.025 28.4995 14.3261 28.2526 14.5386 27.9339C14.7512 27.6151 14.8655 27.2389 14.8669 26.8535ZM35.3164 26.8709C35.3322 26.0838 34.8603 25.52 34.2677 25.6082C33.3134 25.7511 32.5439 26.764 32.6501 27.7367C32.7419 28.5758 33.3567 28.9593 34.1157 28.652C34.4659 28.5092 34.7668 28.2637 34.9802 27.9467C35.1937 27.6297 35.3102 27.2553 35.3151 26.8709H35.3164Z" fill="#3F75BE"/>
<path d="M2.37662 12.7901C2.63879 12.7901 2.90096 12.7901 3.16314 12.7901C3.55832 12.8221 3.92709 13.005 4.19565 13.3022C4.46422 13.5994 4.61278 13.9891 4.61162 14.3931C4.61046 14.7972 4.45966 15.186 4.1894 15.4816C3.91913 15.7772 3.54932 15.9579 3.15396 15.9876C2.62961 15.9947 2.10527 15.9947 1.58092 15.9876C0.663308 15.9769 -0.00261403 15.2941 7.71415e-06 14.3841C0.00262946 13.4742 0.671173 12.8034 1.59009 12.7914C1.85227 12.7874 2.11444 12.7901 2.37662 12.7901Z" fill="#3F75BE"/>
</svg>
