<svg width="38" height="32" viewBox="0 0 38 32" fill="none" xmlns="http://www.w3.org/2000/svg">
<path d="M38 5.6741C37.6495 6.81345 37.299 7.95281 36.9603 9.06368C35.8197 12.8615 34.685 16.6594 33.5562 20.4572C33.5121 20.7379 33.3547 20.9908 33.118 21.1613C32.8813 21.3317 32.5843 21.4062 32.2908 21.3687C26.0291 21.3687 19.7675 21.3687 13.5058 21.3687C13.3658 21.3586 13.226 21.3905 13.1058 21.4599C12.9855 21.5293 12.8907 21.6328 12.8345 21.7561C12.7056 21.9388 12.6349 22.1535 12.6308 22.3741C12.6268 22.5947 12.6895 22.8116 12.8116 22.9986C12.9336 23.1856 13.1097 23.3346 13.3183 23.4276C13.527 23.5205 13.7592 23.5533 13.987 23.5221C20.112 23.5221 26.2371 23.5221 32.368 23.5221C32.5629 23.5089 32.7579 23.5452 32.9335 23.6274C33.1091 23.7095 33.2589 23.8346 33.368 23.99C33.477 24.1455 33.5414 24.3257 33.5547 24.5126C33.5679 24.6995 33.5295 24.8864 33.4433 25.0545C33.3471 25.239 33.1956 25.3918 33.0083 25.4933C32.8209 25.5948 32.6063 25.6403 32.3918 25.6242C31.1442 25.6242 29.8966 25.6242 28.6431 25.6242C29.5284 25.8142 30.3006 26.3297 30.7937 27.0598C31.0396 27.4158 31.207 27.8162 31.2857 28.2364C31.3643 28.6567 31.3526 29.088 31.2512 29.5037C31.0773 30.2369 30.6404 30.8882 30.0167 31.3439C29.393 31.7996 28.6221 32.0307 27.8388 31.9967C27.0554 31.9628 26.3094 31.666 25.7311 31.1583C25.1527 30.6506 24.7788 29.9641 24.6746 29.2189C24.5689 28.3989 24.7925 27.5712 25.3001 26.9036C25.8076 26.236 26.561 25.7786 27.4074 25.6242H17.3258C17.7874 25.7071 18.2266 25.8791 18.6168 26.1298C19.0069 26.3805 19.3398 26.7047 19.5952 27.0826C19.8417 27.4457 20.007 27.854 20.0806 28.2815C20.1543 28.709 20.1346 29.1465 20.0229 29.5664C19.8344 30.293 19.3868 30.9335 18.7576 31.3768C18.1283 31.8202 17.3571 32.0385 16.5777 31.9938C15.7982 31.9492 15.0596 31.6444 14.4899 31.1324C13.9201 30.6204 13.5552 29.9334 13.4583 29.1904C13.3626 28.3836 13.5807 27.5714 14.0706 26.9092C14.5606 26.247 15.2881 25.7813 16.1138 25.6014C15.4069 25.6014 14.7058 25.6014 14.0048 25.6014C13.4478 25.6519 12.8865 25.5655 12.3741 25.3502C11.8616 25.1349 11.4148 24.7978 11.076 24.3709C10.6677 23.9118 10.4145 23.3446 10.3498 22.7444C10.2851 22.1442 10.412 21.5394 10.7136 21.0098C10.8704 20.7382 10.9648 20.4375 10.9904 20.128C11.016 19.8185 10.9723 19.5073 10.8621 19.2153C9.18281 13.6363 7.51936 8.05345 5.87176 2.46681C5.86599 2.41618 5.84954 2.36721 5.82343 2.32286C5.79732 2.27851 5.76207 2.2397 5.71985 2.20881C5.67763 2.17791 5.6293 2.15556 5.5778 2.14311C5.5263 2.13067 5.4727 2.12838 5.42025 2.1364C4.02414 2.1364 2.62803 2.1364 1.23192 2.1364C1.07638 2.15185 0.919195 2.1358 0.77053 2.0893C0.621864 2.04279 0.48504 1.96688 0.368911 1.86646C0.252782 1.76604 0.159928 1.64335 0.0963797 1.50634C0.032831 1.36933 0 1.22105 0 1.0711C0 0.921153 0.032831 0.772874 0.0963797 0.635864C0.159928 0.498855 0.252782 0.376169 0.368911 0.275748C0.48504 0.175327 0.621864 0.0994098 0.77053 0.052909C0.919195 0.00640813 1.07638 -0.00964173 1.23192 0.00580382H6.51337C6.80003 -0.0226951 7.08725 0.0544713 7.31675 0.221636C7.54624 0.388802 7.7008 0.63344 7.74906 0.905895C8.08175 2.01677 8.40851 3.12764 8.74714 4.27269H9.22835C18.3615 4.27269 27.4906 4.27269 36.6158 4.27269C36.9101 4.24407 37.206 4.31031 37.4566 4.46093C37.7073 4.61155 37.8985 4.83797 38 5.10442V5.6741Z" fill="#3F75BE"/>
</svg>
