<svg width="48" height="48" viewBox="0 0 48 48" fill="none" xmlns="http://www.w3.org/2000/svg">
<path d="M9.31813 3.7975C9.36313 3.25 9.40813 2.77 9.44563 2.2975C9.47344 1.96014 9.62106 1.64387 9.86179 1.40589C10.1025 1.16791 10.4205 1.02393 10.7581 1C10.9006 1 11.0356 1 11.1781 1C19.4281 1 27.6781 1 35.9281 1C37.1881 1 37.6831 1.4875 37.6831 2.74V3.7975H44.4931C44.7124 3.77781 44.9334 3.80664 45.1403 3.88196C45.3472 3.95727 45.535 4.07721 45.6904 4.23327C45.8457 4.38933 45.9648 4.57768 46.0392 4.78493C46.1135 4.99219 46.1413 5.21328 46.1206 5.4325C46.2687 7.66026 45.9651 9.89496 45.2281 12.0025C43.1131 17.4175 39.1606 20.6725 33.5131 21.9475C33.3032 22.0061 33.1202 22.1361 32.9956 22.315C32.1481 23.4475 31.3306 24.6025 30.4906 25.735C30.4306 25.8007 30.3577 25.8533 30.2763 25.8894C30.195 25.9256 30.1071 25.9445 30.0181 25.945C25.7131 25.945 21.4106 25.945 17.1106 25.945C17.0077 25.9351 16.9079 25.904 16.8176 25.8536C16.7272 25.8033 16.6482 25.7348 16.5856 25.6525C15.7681 24.5575 14.9881 23.4025 14.1706 22.33C14.0138 22.1378 13.7974 22.0032 13.5556 21.9475C10.533 21.3972 7.74602 19.9497 5.55757 17.7933C3.36911 15.6369 1.88053 12.8717 1.28563 9.8575C1.04136 8.30269 0.953424 6.72733 1.02313 5.155C1.02873 4.96614 1.07243 4.78035 1.15162 4.6088C1.2308 4.43725 1.34383 4.28347 1.48392 4.15668C1.62402 4.0299 1.78828 3.93273 1.96686 3.87101C2.14544 3.80928 2.33465 3.78428 2.52313 3.7975H9.33313H9.31813ZM19.4431 18.475C19.4596 18.6645 19.5208 18.8474 19.6218 19.0085C19.7228 19.1697 19.8606 19.3046 20.024 19.402C20.1873 19.4994 20.3715 19.5566 20.5613 19.5689C20.7511 19.5811 20.9411 19.5481 21.1156 19.4725C21.7831 19.15 22.4506 18.7975 23.0956 18.4225C23.2384 18.3221 23.4086 18.2683 23.5831 18.2683C23.7576 18.2683 23.9279 18.3221 24.0706 18.4225C24.7006 18.805 25.3606 19.12 26.0056 19.465C26.1796 19.5601 26.3779 19.6015 26.5754 19.5842C26.7729 19.5668 26.9609 19.4914 27.1156 19.3675C27.2979 19.2577 27.4458 19.099 27.5425 18.9094C27.6393 18.7199 27.6811 18.5071 27.6631 18.295C27.5506 17.4325 27.3856 16.5775 27.2806 15.715C27.2719 15.6082 27.2847 15.5008 27.3182 15.399C27.3517 15.2973 27.4052 15.2032 27.4756 15.1225C28.0081 14.5375 28.6606 14.0425 29.1331 13.4125C29.9806 12.2725 29.9281 11.8075 28.8706 11.3275C28.7826 11.2996 28.6922 11.2795 28.6006 11.2675C27.8506 11.1475 27.1606 11.005 26.4406 10.9225C26.3259 10.9183 26.2151 10.8795 26.1227 10.8113C26.0304 10.743 25.9608 10.6485 25.9231 10.54C25.5781 9.8275 25.2331 9.115 24.8581 8.4175C24.7486 8.18617 24.5738 7.99192 24.3552 7.85866C24.1367 7.72541 23.884 7.65896 23.6281 7.6675C23.3847 7.66981 23.148 7.74749 22.9506 7.88986C22.7532 8.03223 22.6047 8.23228 22.5256 8.4625C22.1956 9.2125 21.8431 9.895 21.4606 10.5925C21.354 10.7614 21.1882 10.8844 20.9956 10.9375C20.2456 11.0875 19.4956 11.1775 18.7456 11.32C18.5035 11.3468 18.2738 11.4411 18.0828 11.5923C17.8918 11.7436 17.7472 11.9455 17.6656 12.175C17.5878 12.4137 17.5825 12.6702 17.6506 12.9119C17.7187 13.1535 17.8571 13.3696 18.0481 13.5325C18.6031 14.08 19.1656 14.6275 19.6906 15.1975C19.7521 15.2679 19.7984 15.3501 19.8268 15.4391C19.8552 15.5281 19.865 15.622 19.8556 15.715C19.7356 16.6075 19.6156 17.5225 19.4431 18.475ZM43.2406 6.67H37.6681C37.5768 10.7577 36.6797 14.7872 35.0281 18.5275C37.4827 17.6854 39.6038 16.0805 41.0813 13.9472C42.5588 11.8139 43.3155 9.26395 43.2406 6.67ZM3.86563 6.6625C3.79649 9.82732 4.94871 12.8972 7.08313 15.235C8.44449 16.7615 10.1784 17.9088 12.1156 18.565C10.3588 14.8372 9.40328 10.7825 9.31063 6.6625H3.86563Z" fill="#3F75BE"/>
<path d="M23.5456 46.0975H13.8706C13.6562 46.1324 13.4366 46.1165 13.2295 46.0511C13.0224 45.9857 12.8335 45.8725 12.6781 45.7207C12.5227 45.569 12.4051 45.3828 12.3347 45.1773C12.2644 44.9718 12.2433 44.7526 12.2731 44.5375C12.2731 43.42 12.2731 42.2875 12.2731 41.17C12.2731 40.0525 12.7456 39.6025 13.8406 39.6025H33.1156C33.4113 39.5928 33.7068 39.6256 33.9931 39.7C34.2439 39.7683 34.4649 39.9181 34.621 40.1259C34.7772 40.3337 34.8598 40.5876 34.8556 40.8475C34.8556 42.0775 34.8556 43.3075 34.8556 44.5375C34.8764 44.7469 34.8489 44.9582 34.7755 45.1554C34.702 45.3525 34.5844 45.5303 34.4317 45.675C34.279 45.8197 34.0952 45.9277 33.8944 45.9905C33.6936 46.0533 33.4811 46.0694 33.2731 46.0375L23.5456 46.0975Z" fill="#3F75BE"/>
<path d="M18.1156 28.6075H29.0206C29.0881 29.0575 29.1256 29.5 29.2231 29.935C29.677 31.6739 30.5736 33.2657 31.8256 34.555C32.0431 34.8025 32.2681 35.035 32.5006 35.305C32.638 35.4116 32.7341 35.5627 32.7724 35.7323C32.8107 35.902 32.7889 36.0797 32.7106 36.235C32.6458 36.3885 32.5318 36.516 32.3865 36.5975C32.2412 36.679 32.0729 36.7098 31.9081 36.685H15.6481C15.2281 36.685 14.8606 36.64 14.6806 36.205C14.5006 35.77 14.7256 35.4925 14.9881 35.2075C16.4033 33.7914 17.4088 32.0187 17.8981 30.0775C17.9881 29.5975 18.0331 29.1175 18.1156 28.6075Z" fill="#3F75BE"/>
</svg>
