<svg width="48" height="48" viewBox="0 0 48 48" fill="none" xmlns="http://www.w3.org/2000/svg">
<path d="M45.8342 24.9214C45.6721 24.653 45.5864 24.3454 45.5864 24.0319C45.5864 23.7183 45.6721 23.4107 45.8342 23.1423C46.404 22.0764 46.9439 20.988 47.4837 19.9071C47.7622 19.4041 47.9325 18.8484 47.9837 18.2757C48.0348 17.7029 47.9656 17.1258 47.7806 16.5814C47.5956 16.037 47.2988 15.5374 46.9093 15.1147C46.5199 14.692 46.0464 14.3556 45.5193 14.1271C44.447 13.5641 43.3823 13.0012 42.2876 12.4907C41.9594 12.3519 41.6744 12.1276 41.4621 11.8411C41.2498 11.5547 41.118 11.2165 41.0805 10.8618C40.863 9.51065 40.6306 8.15201 40.2932 6.82337C40.018 5.88092 39.4219 5.06466 38.6083 4.51621C37.7948 3.96776 36.8152 3.72173 35.8394 3.82079C34.4148 3.96342 32.9977 4.15106 31.5881 4.36875C31.2954 4.42708 30.9929 4.41313 30.7068 4.32811C30.4206 4.2431 30.1595 4.08958 29.946 3.88084C29.2787 3.2578 28.5964 2.65728 27.9515 2.01923C27.0842 1.03856 25.947 0.336108 24.6824 0H23.3178C22.052 0.33318 20.914 1.03612 20.0487 2.01923C19.5313 2.53718 18.9315 2.98006 18.4516 3.52052C18.133 3.88556 17.7158 4.15063 17.2502 4.28381C16.7846 4.41698 16.2905 4.41259 15.8274 4.27116C14.7027 4.05347 13.578 3.94839 12.4083 3.80577C11.8394 3.72766 11.2607 3.76293 10.7055 3.90952C10.1503 4.0561 9.62951 4.31113 9.17309 4.65993C8.71668 5.00873 8.33364 5.44441 8.04602 5.94194C7.7584 6.43947 7.57185 6.98902 7.49713 7.55898C7.31718 8.71497 7.07724 9.86347 6.8823 11.0195C6.84028 11.3266 6.71746 11.6171 6.52642 11.8611C6.33538 12.1051 6.08299 12.2939 5.79509 12.4081C4.67789 12.9486 3.5457 13.5191 2.48099 14.0971C1.95375 14.3254 1.48018 14.6618 1.09086 15.0847C0.701531 15.5075 0.405094 16.0074 0.220686 16.5521C0.0362783 17.0967 -0.0320027 17.6741 0.020246 18.2468C0.0724947 18.8195 0.244113 19.3748 0.524026 19.877C1.05638 20.9655 1.59624 22.0464 2.17358 23.1123C2.33397 23.3826 2.41861 23.6912 2.41861 24.0056C2.41861 24.32 2.33397 24.6285 2.17358 24.8988C1.60374 25.9648 1.06388 27.0457 0.524026 28.1341C0.243576 28.6359 0.0711368 29.191 0.0177919 29.7635C-0.0355531 30.3361 0.031378 30.9135 0.214285 31.4586C0.397192 32.0037 0.692025 32.5044 1.07982 32.9286C1.46762 33.3528 1.9398 33.691 2.466 33.9216C3.5532 34.4846 4.6404 35.0551 5.7426 35.5805C6.06187 35.7178 6.33905 35.9375 6.54585 36.217C6.75265 36.4966 6.88168 36.8261 6.91978 37.1719C7.13722 38.5155 7.36216 39.8517 7.66958 41.1728C7.95775 42.1471 8.58519 42.9858 9.43808 43.5366C10.291 44.0875 11.3128 44.3141 12.3183 44.1754C13.7354 44.0027 15.1525 43.8075 16.5622 43.6124C16.8265 43.5725 17.0966 43.5967 17.3497 43.6829C17.6028 43.7691 17.8315 43.9148 18.0168 44.1078C18.954 44.9785 19.8837 45.8493 20.8285 46.7125C21.6694 47.5378 22.8001 48 23.9776 48C25.1552 48 26.2858 47.5378 27.1268 46.7125C28.049 45.8718 28.9638 45.0311 29.8635 44.1679C30.0834 43.944 30.3556 43.7787 30.6554 43.6869C30.9553 43.5952 31.2733 43.5799 31.5806 43.6424C32.9152 43.8526 34.2498 44.0027 35.592 44.1679C36.1597 44.2438 36.7368 44.207 37.2903 44.0594C37.8438 43.9118 38.3628 43.6564 38.8175 43.3078C39.2723 42.9592 39.6539 42.5242 39.9406 42.0278C40.2273 41.5313 40.4133 40.9832 40.4881 40.4146C40.6606 39.2587 40.9005 38.1102 41.0955 36.9542C41.141 36.6561 41.2621 36.3747 41.4472 36.1369C41.6323 35.899 41.8752 35.7126 42.1527 35.5955C43.2399 35.0701 44.3046 34.5071 45.3843 33.9516C47.8586 32.683 48.6234 30.4011 47.3937 27.9465C46.8914 26.9931 46.3815 25.9497 45.8342 24.9214ZM18.2342 11.5974C18.9147 11.5712 19.5935 11.6827 20.23 11.9254C20.8664 12.168 21.4474 12.5367 21.9382 13.0094C22.4289 13.4822 22.8193 14.0492 23.086 14.6766C23.3526 15.3039 23.4901 15.9787 23.4901 16.6605C23.4901 17.3423 23.3526 18.0171 23.086 18.6445C22.8193 19.2718 22.4289 19.8389 21.9382 20.3116C21.4474 20.7844 20.8664 21.1531 20.23 21.3957C19.5935 21.6383 18.9147 21.7499 18.2342 21.7236C17.5537 21.7499 16.8749 21.6383 16.2384 21.3957C15.602 21.1531 15.021 20.7844 14.5302 20.3116C14.0395 19.8389 13.6491 19.2718 13.3824 18.6445C13.1158 18.0171 12.9783 17.3423 12.9783 16.6605C12.9783 15.9787 13.1158 15.3039 13.3824 14.6766C13.6491 14.0492 14.0395 13.4822 14.5302 13.0094C15.021 12.5367 15.602 12.168 16.2384 11.9254C16.8749 11.6827 17.5537 11.5712 18.2342 11.5974ZM15.6849 33.9891C15.4887 34.2394 15.2181 34.4209 14.9121 34.5072C14.6062 34.5936 14.2808 34.5804 13.9829 34.4695C13.775 34.4029 13.5868 34.2859 13.4349 34.1289C13.283 33.972 13.1721 33.78 13.112 33.5699C13.052 33.3598 13.0446 33.1381 13.0905 32.9245C13.1365 32.7109 13.2344 32.5119 13.3755 32.3452C13.4655 32.2401 13.5705 32.1426 13.6754 32.0375L32.3154 14.1421C32.5165 13.8741 32.8015 13.6811 33.1249 13.594C33.4483 13.507 33.7915 13.5308 34.0999 13.6617C34.3698 13.78 34.5975 13.9775 34.7528 14.2282C34.9081 14.4788 34.9837 14.7708 34.9696 15.0654C34.8872 15.2306 34.7672 15.5158 34.6247 15.7785C34.5506 15.8853 34.4594 15.9791 34.3548 16.0563L15.6849 33.9891ZM29.7661 36.5188C29.0855 36.545 28.4067 36.4335 27.7703 36.1909C27.1338 35.9483 26.5528 35.5795 26.0621 35.1068C25.5713 34.6341 25.1809 34.067 24.9143 33.4397C24.6476 32.8123 24.5102 32.1375 24.5102 31.4557C24.5102 30.7739 24.6476 30.0991 24.9143 29.4717C25.1809 28.8444 25.5713 28.2774 26.0621 27.8046C26.5528 27.3319 27.1338 26.9632 27.7703 26.7205C28.4067 26.4779 29.0855 26.3664 29.7661 26.3926C31.1324 26.3705 32.4519 26.8913 33.4356 27.8409C34.4192 28.7905 34.987 30.0917 35.0146 31.4595C34.9604 32.8163 34.3835 34.0994 33.4051 35.0398C32.4266 35.9802 31.1224 36.5049 29.7661 36.5038V36.5188Z" fill="#3F75BE"/>
</svg>
