<svg width="48" height="48" viewBox="0 0 48 48" fill="none" xmlns="http://www.w3.org/2000/svg">
<path d="M30.2697 20.9547L17.8261 8.57269C17.1589 7.90481 16.6867 7.90481 16.0345 8.57269C14.8151 9.78337 13.6008 10.999 12.3914 12.2197C12.2584 12.3132 12.1498 12.4373 12.0748 12.5817C11.9999 12.726 11.9608 12.8863 11.9608 13.049C11.9608 13.2116 11.9999 13.3719 12.0748 13.5163C12.1498 13.6606 12.2584 13.7847 12.3914 13.8782C12.7737 14.2609 13.141 14.6286 13.6358 15.0789C13.4662 15.1943 13.3035 15.3196 13.1485 15.4541C11.237 17.3677 9.31796 19.2737 7.42143 21.1873C5.55768 23.0232 4.41153 25.4659 4.19018 28.0741C3.96883 30.6822 4.6869 33.2836 6.21456 35.4078L6.65684 36.0157C6.51441 36.1358 6.38697 36.2258 6.27452 36.3309L0.712388 41.9065C0.465015 42.1542 0.240121 42.4318 0.000244141 42.6569V43.3098C0.185335 43.5574 0.383 43.7954 0.592447 44.0227C1.71687 45.1558 2.84128 46.274 3.9732 47.4071C4.20029 47.6168 4.43799 47.8147 4.68534 48H5.3375C5.62236 47.7448 5.92222 47.4972 6.19208 47.2495C8.03113 45.4185 9.86519 43.5825 11.6943 41.7414L12.0616 41.3962L12.4289 41.6589C14.2146 43.0562 16.4 43.8451 18.6657 43.9101C20.1993 43.9642 21.727 43.6926 23.1482 43.1132C24.5694 42.5337 25.852 41.6596 26.9114 40.5482L31.3492 36.0982C31.8739 35.5729 32.3911 35.0326 32.9533 34.4623C33.3581 34.875 33.703 35.2127 34.0778 35.6105C34.173 35.7528 34.3018 35.8696 34.4528 35.9503C34.6039 36.031 34.7724 36.0732 34.9436 36.0732C35.1148 36.0732 35.2833 36.031 35.4343 35.9503C35.5853 35.8696 35.7141 35.7528 35.8094 35.6105L39.46 32.0535C40.2096 31.3405 40.2096 30.8678 39.46 30.1474L30.2697 20.9547Z" fill="#3F75BE"/>
<path d="M31.0566 10.3963C32.3235 9.12804 33.5978 7.86734 34.8572 6.58411C35.4345 6.03745 35.8234 5.32123 35.9675 4.53888C36.1117 3.75654 36.0038 2.94855 35.6593 2.23164C35.4006 1.66505 35.0073 1.17041 34.5139 0.790842C34.0204 0.41127 33.4417 0.15829 32.8281 0.0539527C32.2146 -0.0503847 31.5849 -0.00291629 30.9939 0.19223C30.4029 0.387376 29.8686 0.724289 29.4375 1.17357C26.7913 3.80005 24.1902 6.42652 21.529 9.09053C21.4895 9.12905 21.4543 9.17182 21.4241 9.21809C23.2157 11.0341 24.9773 12.8427 26.7838 14.6812L31.0566 10.3963Z" fill="#3F75BE"/>
<path d="M47.6603 14.2761C47.4029 13.7006 47.0081 13.1973 46.5105 12.8107C46.0129 12.424 45.428 12.1659 44.8072 12.0592C44.1864 11.9524 43.5489 12.0002 42.951 12.1984C42.353 12.3965 41.813 12.739 41.3785 13.1955C38.7748 15.7869 36.1812 18.3834 33.5975 20.9849C33.5225 21.0599 33.4551 21.15 33.4026 21.21L38.7698 26.6356L39.0472 26.3804C41.6359 23.789 44.2171 21.2025 46.7907 18.621C47.3728 18.0797 47.7699 17.3688 47.926 16.589C48.0821 15.8092 47.9891 15.0001 47.6603 14.2761Z" fill="#3F75BE"/>
</svg>
