<svg width="38" height="48" viewBox="0 0 38 48" fill="none" xmlns="http://www.w3.org/2000/svg">
<path d="M36.1362 26.0542C35.2436 23.6465 34.1602 21.314 32.8962 19.0789C29.9595 13.9713 26.6638 9.07884 23.0337 4.4384C22.0137 3.09585 20.9562 1.77579 19.8912 0.463244C19.7896 0.314859 19.652 0.194627 19.4914 0.113752C19.3308 0.0328764 19.1523 -0.00599106 18.9726 0.000748388C18.7928 0.00748784 18.6178 0.059618 18.4637 0.152297C18.3095 0.244975 18.1814 0.375165 18.0912 0.530744C17.7162 1.13077 17.3412 1.71581 16.9062 2.28583C13.9962 6.31348 11.0187 10.2886 8.18369 14.3613C5.80885 17.6792 3.82567 21.2606 2.27368 25.0342C1.42553 26.9221 0.990754 28.9696 0.998515 31.0393C1.00628 33.109 1.45639 35.1531 2.31868 37.0346C3.40996 39.6755 5.12718 42.0113 7.32227 43.8406C9.51735 45.6699 12.1244 46.9378 14.9187 47.535C15.7887 47.745 16.6812 47.85 17.5587 48H20.4312C21.1212 47.895 21.8262 47.82 22.5087 47.67C28.9062 46.2674 33.3837 42.6223 35.7987 36.7046C37.2764 33.3299 37.3973 29.5156 36.1362 26.0542ZM25.4712 25.9717C23.2062 29.6568 20.9387 33.337 18.6687 37.0121C18.6201 37.1124 18.5382 37.1927 18.437 37.2393C18.3357 37.2858 18.2214 37.2956 18.1137 37.2671C17.8737 37.1996 17.7762 37.0346 17.8137 36.7421C17.9562 35.467 18.0912 34.192 18.2337 32.917C18.3387 31.9944 18.4512 31.0644 18.5637 30.1118H18.3162C16.5462 30.1118 14.7687 30.1118 12.9987 30.1118C12.5637 30.1118 12.3237 29.7743 12.5487 29.4218C14.8587 25.7567 17.1587 22.089 19.4487 18.4189C19.4955 18.3059 19.5836 18.2151 19.6951 18.1649C19.8066 18.1148 19.9331 18.109 20.0487 18.1489C20.1382 18.1704 20.2164 18.2247 20.2678 18.3011C20.3191 18.3775 20.34 18.4704 20.3262 18.5614C20.2737 19.0114 20.2137 19.454 20.1462 19.904C20.0187 20.804 19.8837 21.7115 19.7562 22.6116L19.3962 25.1242C19.3962 25.1692 19.3962 25.2217 19.3962 25.2967H25.0437C25.5087 25.3042 25.6812 25.5967 25.4712 25.9717Z" fill="#3F75BE"/>
</svg>
