<svg width="48" height="49" viewBox="0 0 48 49" fill="none" xmlns="http://www.w3.org/2000/svg">
<path d="M23.8882 2.5C24.9076 3.18879 25.9064 3.87757 26.9533 4.46304C27.2013 4.6008 27.6421 4.46304 27.9452 4.46304C28.7855 4.36661 29.619 4.2633 30.4524 4.1462C30.5749 4.11589 30.7041 4.12966 30.8174 4.18507C30.9308 4.24048 31.021 4.33401 31.0723 4.44927C31.582 5.31715 32.0986 6.17124 32.6496 7.00468C32.7956 7.22268 33.0047 7.39091 33.2489 7.48685C34.2201 7.85191 35.2119 8.17564 36.1969 8.50626C36.293 8.52295 36.3796 8.57418 36.4405 8.6503C36.5014 8.72642 36.5323 8.82216 36.5275 8.91952C36.6308 10.0147 36.7411 11.1099 36.8788 12.2051C36.919 12.3808 37.0128 12.5397 37.1474 12.6597C37.8844 13.4036 38.6215 14.1406 39.3791 14.8638C39.4689 14.9299 39.5325 15.0254 39.559 15.1337C39.5854 15.242 39.573 15.3561 39.5238 15.4562C39.1449 16.4411 38.7868 17.433 38.4424 18.4317C38.3805 18.629 38.3805 18.8406 38.4424 19.0379C38.7799 20.0228 39.1312 21.0009 39.5031 21.979C39.5596 22.0826 39.5767 22.203 39.5514 22.3182C39.5261 22.4334 39.46 22.5355 39.3653 22.6058C38.6352 23.2946 37.9878 24.0454 37.2094 24.6722C36.7824 25.0373 36.8513 25.4919 36.7962 25.9258C36.6722 26.773 36.5895 27.6271 36.5275 28.4812C36.5307 28.5927 36.4934 28.7016 36.4225 28.7877C36.3516 28.8738 36.2518 28.9313 36.1418 28.9496C35.1568 29.2802 34.165 29.6384 33.1869 29.969C32.9806 30.0443 32.8027 30.1814 32.6772 30.3616C32.1124 31.2433 31.5682 32.1318 31.031 33.0272C30.9825 33.1351 30.896 33.2213 30.7881 33.2696C30.6801 33.3178 30.5582 33.3247 30.4455 33.289C29.4261 33.1443 28.3791 33.0135 27.3804 32.917C27.1384 32.9009 26.8975 32.9611 26.6916 33.0892C25.7961 33.6334 24.9283 34.212 24.0397 34.7561C23.9575 34.7934 23.8683 34.8127 23.778 34.8127C23.6877 34.8127 23.5985 34.7934 23.5163 34.7561C22.6139 34.2051 21.7323 33.6196 20.83 33.0686C20.653 32.9578 20.446 32.9049 20.2376 32.917C19.1975 33.0204 18.1712 33.1443 17.1311 33.289C17.0175 33.3267 16.894 33.3208 16.7845 33.2724C16.675 33.224 16.5874 33.1366 16.5388 33.0272C16.0061 32.1318 15.4597 31.2456 14.8995 30.3685C14.7732 30.1859 14.5959 30.0446 14.3898 29.9621C13.4255 29.6108 12.4543 29.2733 11.4762 28.9565C11.3533 28.9381 11.2414 28.8754 11.1615 28.7803C11.0816 28.6851 11.0392 28.5641 11.0422 28.4399C10.9665 27.3723 10.8356 26.3046 10.7047 25.2439C10.6678 25.0665 10.5763 24.9051 10.443 24.7824C9.71286 24.0385 8.96897 23.3015 8.2113 22.5852C8.1161 22.5137 8.04979 22.4103 8.0245 22.294C7.9992 22.1776 8.01661 22.056 8.07354 21.9515C8.43171 20.9872 8.76233 20.0229 9.11362 19.0517C9.18397 18.8275 9.18397 18.5871 9.11362 18.3629C8.77611 17.3572 8.42481 16.3654 8.04598 15.3804C8.00142 15.2932 7.98874 15.1931 8.01012 15.0975C8.0315 15.002 8.08561 14.9169 8.16308 14.8569C8.88631 14.1681 9.54067 13.4174 10.319 12.7906C10.7667 12.4048 10.7116 11.9296 10.7805 11.4681C10.8976 10.6208 10.9733 9.76674 11.0422 8.90576C11.0392 8.80774 11.0716 8.71191 11.1337 8.63596C11.1957 8.56001 11.2831 8.50905 11.3797 8.49248C12.3647 8.16874 13.3566 7.83812 14.3278 7.47995C14.5601 7.39012 14.7611 7.23454 14.9064 7.03224C15.4574 6.17814 15.9947 5.31714 16.5044 4.44238C16.5532 4.32639 16.6416 4.23153 16.7539 4.17475C16.8662 4.11797 16.995 4.10297 17.1174 4.13243C18.1712 4.27019 19.2182 4.39417 20.272 4.51126C20.3883 4.55012 20.514 4.55012 20.6302 4.51126C21.6565 3.8638 22.6966 3.19567 23.6816 2.53443L23.8882 2.5ZM23.8124 7.61082C21.6162 7.60676 19.4681 8.2537 17.6394 9.4699C15.8106 10.6861 14.3834 12.417 13.5379 14.444C12.6925 16.4709 12.4667 18.703 12.8892 20.8582C13.3116 23.0134 14.3633 24.995 15.9115 26.5528C17.4596 28.1105 19.4347 29.1745 21.5873 29.6103C23.7398 30.0461 25.9732 29.8341 28.0054 29.0012C30.0375 28.1683 31.7772 26.7518 33.0047 24.9307C34.2322 23.1095 34.8925 20.9655 34.902 18.7693C34.9102 17.3074 34.6294 15.8584 34.0758 14.5054C33.5223 13.1524 32.7068 11.9221 31.6763 10.8852C30.6459 9.84835 29.4206 9.02529 28.0711 8.46336C26.7216 7.90144 25.2743 7.61171 23.8124 7.61082Z" fill="#3F75BE"/>
<path d="M19.9483 46.4793C18.5707 45.3635 17.1587 44.2821 15.8156 43.1594C15.598 42.9502 15.3372 42.7913 15.0516 42.6937C14.766 42.5961 14.4625 42.5623 14.1625 42.5946C12.7022 42.7461 11.2213 42.7874 9.75419 42.8632C9.43735 42.8632 9.12738 42.8632 8.73477 42.8632L12.2201 31.9527C12.4509 31.9678 12.6747 32.0382 12.8726 32.1581C13.0704 32.278 13.2364 32.4438 13.3566 32.6415C13.9696 33.7091 14.6446 34.7079 15.2783 35.7893C15.3175 35.8778 15.3866 35.9498 15.4735 35.9926C15.5603 36.0354 15.6595 36.0463 15.7536 36.0235C17.0669 35.8536 18.387 35.6998 19.7141 35.562C19.8939 35.552 20.0728 35.5926 20.2307 35.6791C21.0366 36.175 21.8218 36.6916 22.6208 37.2013C22.7861 37.3046 22.9101 37.3942 22.8343 37.6353C21.8838 40.5557 20.9425 43.4762 20.0103 46.3967L19.9483 46.4793Z" fill="#3F75BE"/>
<path d="M27.6215 46.5C27.2358 45.2808 26.85 44.103 26.4781 42.9321C25.9271 41.2032 25.3829 39.4881 24.8181 37.7524C24.793 37.704 24.7782 37.6508 24.7748 37.5964C24.7713 37.542 24.7793 37.4874 24.798 37.4363C24.8168 37.3851 24.8461 37.3383 24.8839 37.2991C24.9218 37.2598 24.9674 37.2289 25.0179 37.2082C25.8237 36.7123 26.609 36.1888 27.4149 35.6929C27.557 35.6052 27.7239 35.5665 27.8901 35.5827C29.2126 35.7204 30.5282 35.8651 31.8507 36.0441C31.9511 36.0685 32.0569 36.0562 32.1491 36.0095C32.2413 35.9628 32.3137 35.8847 32.3535 35.7893C32.9734 34.763 33.6346 33.7229 34.227 32.7104C34.3423 32.4961 34.5104 32.3147 34.7153 32.1834C34.9201 32.052 35.1551 31.975 35.3979 31.9596L38.8832 42.8494C38.4837 42.8494 38.1393 42.8494 37.7881 42.8494C36.1212 42.7599 34.4474 42.6497 32.7737 42.5739C32.5947 42.5933 32.4262 42.668 32.2915 42.7874C30.8588 43.9239 29.4261 45.0742 28.0003 46.2314L27.6215 46.5Z" fill="#3F75BE"/>
<path d="M23.778 27.2621C22.0852 27.2566 20.432 26.749 19.0278 25.8035C17.6236 24.858 16.5314 23.5172 15.8896 21.9508C15.2478 20.3843 15.0851 18.6626 15.4222 17.0037C15.7594 15.3447 16.5811 13.8231 17.7834 12.6314C18.9857 11.4397 20.5146 10.6315 22.1764 10.3091C23.8383 9.98669 25.5585 10.1646 27.1192 10.8203C28.6799 11.476 30.011 12.58 30.944 13.9925C31.877 15.4051 32.3699 17.0626 32.3603 18.7555C32.3458 21.0202 31.4345 23.1869 29.826 24.7812C28.2174 26.3755 26.0428 27.2676 23.778 27.2621Z" fill="#3F75BE"/>
</svg>
