<svg width="48" height="48" viewBox="0 0 48 48" fill="none" xmlns="http://www.w3.org/2000/svg">
<path d="M4 47.9082V29.5182C4 21.8832 4 14.2432 4 6.59818V6.01318H13.795V11.7657H30.0925V6.01318H39.8875V24.3957C35.2 21.7857 30.52 21.7707 26.08 24.8307C21.64 27.8907 19.9825 32.2482 20.74 37.5807H10.7425V40.3632H21.145C21.3033 40.3433 21.4637 40.3777 21.6 40.4608C21.7362 40.5439 21.8402 40.6708 21.895 40.8207C22.8108 42.7033 24.1823 44.3273 25.8849 45.5454C27.5876 46.7634 29.5675 47.5369 31.645 47.7957L32.335 47.9007L4 47.9082ZM14.455 32.5782L19.8175 27.2157L17.8975 25.2807L14.395 28.7907L12.4675 26.7657L10.5625 28.6857L14.455 32.5782ZM10.54 18.9657L14.425 22.8582L19.81 17.4657L17.845 15.4932L14.3575 18.9882L12.49 17.0157L10.54 18.9657ZM24.985 18.5682H33.9325V15.8307H24.985V18.5682Z" fill="#3F75BE"/>
<path d="M33.31 25.3557C35.2605 25.3705 37.1628 25.9629 38.7768 27.0581C40.3908 28.1532 41.6441 29.702 42.3786 31.509C43.113 33.3159 43.2956 35.3 42.9033 37.2106C42.5109 39.1212 41.5613 40.8728 40.1743 42.2441C38.7873 43.6154 37.025 44.5451 35.1101 44.9156C33.1951 45.2862 31.2133 45.081 29.4148 44.3261C27.6163 43.5712 26.0819 42.3003 25.0051 40.6739C23.9284 39.0476 23.3577 37.1386 23.365 35.1882C23.3659 33.8877 23.6246 32.6003 24.1261 31.4005C24.6276 30.2006 25.362 29.112 26.2868 28.1977C27.2116 27.2834 28.3084 26.5615 29.5139 26.0736C30.7194 25.5858 32.0097 25.3418 33.31 25.3557ZM38.95 38.9157C38.714 38.6709 38.4636 38.4405 38.2 38.2257C38.089 38.1667 37.9922 38.0842 37.9164 37.984C37.8406 37.8837 37.7876 37.7681 37.7612 37.6452C37.7348 37.5223 37.7355 37.3952 37.7634 37.2726C37.7912 37.15 37.8456 37.035 37.9225 36.9357C37.9579 36.8297 38.0286 36.7391 38.1228 36.679C38.217 36.6189 38.329 36.593 38.44 36.6057C38.935 36.6057 39.43 36.6057 39.94 36.6057V33.8382C39.415 33.8382 38.9125 33.8007 38.44 33.8382C37.825 33.8907 37.9675 33.3357 37.7575 33.0882C37.5475 32.8407 37.7575 32.6907 37.915 32.5407L38.9275 31.5132L36.925 29.5032C36.6011 29.8253 36.2932 30.1632 36.0025 30.5157C35.6125 31.0257 35.2525 30.5682 34.9375 30.5157C34.6225 30.4632 34.6525 30.1782 34.645 29.9382V28.5132H31.87C31.8436 28.8777 31.8436 29.2436 31.87 29.6082C31.9085 29.7282 31.92 29.8552 31.9036 29.9802C31.8873 30.1052 31.8435 30.225 31.7754 30.3311C31.7073 30.4372 31.6166 30.5269 31.5098 30.5938C31.403 30.6607 31.2827 30.7032 31.1575 30.7182C30.8875 30.7932 30.73 30.7857 30.5575 30.5832C30.22 30.2007 29.8675 29.8332 29.605 29.5332L27.55 31.5732C27.7881 31.8158 28.0384 32.0461 28.3 32.2632C28.4075 32.3207 28.5012 32.4009 28.5746 32.4982C28.648 32.5956 28.6994 32.7077 28.7251 32.8269C28.7508 32.9461 28.7502 33.0694 28.7234 33.1884C28.6967 33.3073 28.6443 33.419 28.57 33.5157C28.42 33.7782 28.3 33.8757 28.015 33.8607C27.52 33.8607 27.025 33.8607 26.515 33.8607V36.6357C27.0625 36.6357 27.58 36.6357 28.09 36.6357C28.3225 36.6357 28.4725 36.6807 28.525 36.9357C28.5615 37.087 28.6223 37.2313 28.705 37.3632C28.855 37.5957 28.7875 37.7532 28.5925 37.9257C28.2175 38.2707 27.8425 38.6307 27.5125 38.9607L29.56 40.9932C29.8016 40.7563 30.0295 40.5059 30.2425 40.2432C30.2963 40.1315 30.3736 40.0329 30.4692 39.9542C30.5648 39.8754 30.6764 39.8184 30.7963 39.787C30.9161 39.7556 31.0413 39.7506 31.1633 39.7724C31.2852 39.7942 31.401 39.8422 31.5025 39.9132C31.72 40.0407 31.8325 40.1307 31.825 40.3857C31.825 40.8957 31.825 41.4132 31.825 41.9457H34.6C34.6 41.3982 34.6 40.8882 34.6 40.3782C34.6 40.1457 34.6 39.9882 34.9 39.9357C35.0516 39.9038 35.1963 39.8454 35.3275 39.7632C35.56 39.6132 35.7175 39.6807 35.89 39.8682C36.2275 40.2507 36.5875 40.6182 36.9175 40.9632L38.95 38.9157Z" fill="#3F75BE"/>
<path d="M16.6225 9.01317V3.06567C16.6675 3.06567 16.6975 3.00567 16.72 3.01317C17.47 3.13317 17.8225 2.81067 18.22 2.15067C18.6214 1.47183 19.1986 0.913967 19.8907 0.535955C20.5828 0.157943 21.3642 -0.0261868 22.1523 0.00300165C22.9404 0.0321901 23.706 0.273614 24.3682 0.701789C25.0305 1.12996 25.5649 1.729 25.915 2.43567C26.1325 2.87817 26.365 3.08817 26.8525 2.99817C26.9972 2.98688 27.1427 2.98688 27.2875 2.99817V8.99817L16.6225 9.01317Z" fill="#3F75BE"/>
<path d="M31.0376 35.2107C31.0479 34.7772 31.1864 34.3564 31.4354 34.0014C31.6844 33.6464 32.0329 33.373 32.437 33.2157C32.841 33.0583 33.2826 33.024 33.7061 33.1171C34.1297 33.2102 34.5162 33.4265 34.817 33.7388C35.1179 34.0511 35.3196 34.4454 35.3968 34.8721C35.474 35.2988 35.4233 35.7388 35.2509 36.1367C35.0786 36.5346 34.7924 36.8727 34.4283 37.1083C34.0643 37.3438 33.6386 37.4665 33.2051 37.4607C32.9133 37.4609 32.6246 37.4022 32.3561 37.2881C32.0876 37.1741 31.8449 37.007 31.6425 36.7969C31.4401 36.5868 31.2822 36.3381 31.1782 36.0655C31.0743 35.7929 31.0264 35.5022 31.0376 35.2107Z" fill="#3F75BE"/>
</svg>
