<svg width="48" height="48" viewBox="0 0 48 48" fill="none" xmlns="http://www.w3.org/2000/svg">
<path d="M46.925 24.4328C46.9309 28.8819 45.6154 33.2324 43.1455 36.9329C40.6755 40.6333 37.1623 43.5169 33.0514 45.2181C28.9404 46.9193 24.4169 47.3613 20.0544 46.4882C15.6918 45.6151 11.6868 43.4662 8.54723 40.3139C5.40762 37.1617 3.27481 33.1481 2.41925 28.7821C1.5637 24.4161 2.02393 19.8943 3.7416 15.7903C5.45927 11.6862 8.357 8.18459 12.0673 5.72954C15.7777 3.27449 20.1335 1.97656 24.5825 2.00032C30.5145 2.03004 36.1938 4.40585 40.38 8.6089C44.5661 12.812 46.9191 18.5007 46.925 24.4328ZM24.155 39.2453C24.4531 39.2611 24.748 39.1777 24.9936 39.0081C25.2392 38.8384 25.4217 38.5922 25.5125 38.3078C28.0625 32.7228 30.615 27.1353 33.17 21.5453C34.26 19.1753 35.345 16.8003 36.425 14.4203C36.5492 14.1574 36.5975 13.865 36.5644 13.5761C36.5313 13.2872 36.418 13.0133 36.2375 12.7853C36.1044 12.6094 35.9225 12.4766 35.7145 12.4032C35.5065 12.3299 35.2815 12.3193 35.0675 12.3728C34.8406 12.421 34.6212 12.4992 34.415 12.6053C26.495 16.2203 18.5775 19.8378 10.6625 23.4578C10.07 23.7278 9.64999 24.0878 9.67999 24.7778C9.69332 25.0765 9.80382 25.3627 9.99471 25.5928C10.1856 25.823 10.4464 25.9845 10.7375 26.0528C12.785 26.8028 14.84 27.5528 16.88 28.3853C17.2649 28.5762 17.7029 28.6319 18.1233 28.5434C18.5437 28.455 18.9221 28.2276 19.1975 27.8978C20.435 26.6003 21.725 25.3553 22.985 24.0803C23.1013 23.9516 23.2422 23.8475 23.3994 23.7742C23.5566 23.7009 23.727 23.6599 23.9003 23.6535C24.0737 23.6472 24.2465 23.6757 24.4087 23.7373C24.5708 23.7989 24.719 23.8924 24.8444 24.0123C24.9697 24.1321 25.0698 24.2759 25.1387 24.4352C25.2075 24.5944 25.2437 24.7658 25.2452 24.9392C25.2467 25.1127 25.2133 25.2847 25.1472 25.445C25.081 25.6054 24.9833 25.7509 24.86 25.8728C23.57 27.1853 22.265 28.4828 20.96 29.7803C20.6748 30.0277 20.4738 30.3579 20.3851 30.7249C20.2963 31.0919 20.3243 31.4774 20.465 31.8278C21.285 34.0278 22.1125 36.2228 22.9475 38.4128C23.02 38.6707 23.1803 38.8951 23.4009 39.0472C23.6214 39.1992 23.8882 39.2693 24.155 39.2453Z" fill="#3F75BE"/>
</svg>
