<svg width="48" height="48" viewBox="0 0 48 48" fill="none" xmlns="http://www.w3.org/2000/svg">
<path d="M46.5 24.9239C46.4437 25.114 46.3873 25.3112 46.324 25.5013C46.0803 26.2894 45.5935 26.9802 44.9333 27.4747C44.2731 27.9692 43.4733 28.2421 42.6485 28.2544C41.7965 28.2544 40.9445 28.2544 40.0996 28.2544C40.015 28.2633 39.9333 28.2907 39.8603 28.3344C39.7874 28.3782 39.7248 28.4374 39.6771 28.5079C38.643 30.9093 37.0688 33.0399 35.077 34.7337C33.0852 36.4276 30.7294 37.639 28.193 38.2739C28.1158 38.3017 28.0405 38.3347 27.9677 38.3725V40.1187C27.9649 40.899 27.7315 41.6609 27.2968 42.3089C26.8621 42.9568 26.2456 43.4618 25.5248 43.7604C24.8039 44.0589 24.0109 44.1377 23.2454 43.9869C22.4799 43.836 21.776 43.4622 21.2224 42.9124C20.6687 42.3626 20.2899 41.6615 20.1337 40.8971C19.9774 40.1326 20.0506 39.3391 20.344 38.6161C20.6375 37.8932 21.1381 37.2731 21.7829 36.8339C22.4278 36.3946 23.1881 36.1559 23.9683 36.1475C26.6958 36.1543 29.3699 35.3915 31.6833 33.9468C33.9968 32.5021 35.8558 30.4342 37.0468 27.9804C38.2378 25.5267 38.7125 22.7868 38.4163 20.0754C38.1201 17.3641 37.065 14.7912 35.3723 12.6525C33.6797 10.5138 31.418 8.89601 28.8472 7.9849C26.2764 7.07379 23.5007 6.90637 20.839 7.50186C18.1773 8.09735 15.7376 9.4316 13.8001 11.3513C11.8626 13.2711 10.506 15.6984 9.88601 18.3545C9.23867 21.1621 9.41966 24.0972 10.4071 26.8039C10.562 27.2545 10.7028 27.7122 10.8718 28.2121H9.78039C8.28767 28.2121 6.79494 28.2121 5.30222 28.2121C4.2974 28.1817 3.34265 27.7665 2.63509 27.0524C1.92753 26.3383 1.5212 25.3798 1.5 24.3747C1.5 22.544 1.5 20.7133 1.5 18.8826C1.52635 17.878 1.9353 16.9214 2.64328 16.2081C3.35127 15.4949 4.30488 15.0789 5.30927 15.0452C6.119 15.0452 6.92168 15.0452 7.72437 15.0452C7.85664 15.0627 7.99081 15.0326 8.10299 14.9604C8.21517 14.8882 8.29809 14.7785 8.33696 14.6509C9.67622 11.6406 11.8565 9.08126 14.6156 7.28051C17.3746 5.47977 20.5952 4.51429 23.8899 4.50016C27.1846 4.48603 30.4132 5.42384 33.1877 7.20086C35.9621 8.97787 38.1642 11.5184 39.5293 14.5171C39.5828 14.6907 39.6967 14.8394 39.8504 14.9363C40.0041 15.0331 40.1874 15.0718 40.3671 15.0452C41.3065 14.9913 42.2487 15.0172 43.1836 15.1226C43.9599 15.2311 44.6831 15.579 45.2523 16.118C45.8216 16.6569 46.2085 17.36 46.3592 18.1292C46.3831 18.2104 46.4113 18.2904 46.4437 18.3686L46.5 24.9239Z" fill="#3F75BE"/>
<path d="M12.1744 33.5705V30.9935C12.5558 30.9158 12.9285 30.8003 13.2869 30.6485C13.6273 30.4762 13.9291 30.2367 14.1741 29.9443C14.7444 29.3036 14.7303 29.1417 14.2515 28.4446C12.799 26.3457 12.0621 23.8344 12.1502 21.2834C12.2383 18.7325 13.1467 16.278 14.7406 14.2843C16.3345 12.2907 18.5288 10.8642 20.9977 10.2167C23.4667 9.56921 26.0787 9.73521 28.4458 10.69C30.8129 11.6449 32.809 13.3377 34.1377 15.517C35.4663 17.6964 36.0567 20.2462 35.8212 22.7878C35.5857 25.3293 34.5368 27.7272 32.8302 29.6253C31.1237 31.5234 28.8505 32.8205 26.3482 33.3241C25.574 33.4779 24.7858 33.5511 23.9965 33.5424C20.1802 33.5424 16.3568 33.5424 12.5335 33.5424L12.1744 33.5705ZM20.0394 20.4247H17.4975V23.0018H20.0746L20.0394 20.4247ZM22.722 20.4247V23.0159H25.3061V20.4247H22.722ZM27.9888 20.4247V23.0088H30.5729V20.4247H27.9888Z" fill="#3F75BE"/>
</svg>
