<svg width="24" height="24" viewBox="0 0 24 24" fill="none" xmlns="http://www.w3.org/2000/svg">
<path d="M17.9823 24C16.9049 23.8968 15.8462 23.6497 14.8346 23.2652C12.502 22.4035 10.433 21.0962 8.51775 19.5311C5.83748 17.34 3.59858 14.7716 1.90335 11.7469C1.01862 10.1697 0.35524 8.50706 0.043612 6.71414C-0.0493413 6.17974 -0.00520522 5.70279 0.288367 5.23452C1.38909 3.47901 2.66035 1.87113 4.25326 0.533129C4.35491 0.447625 4.46792 0.375481 4.57626 0.297993C5.23562 -0.174284 5.77529 -0.0560477 6.41727 0.447625C6.50249 0.51504 6.5777 0.59421 6.64062 0.682761C7.74001 2.23252 8.80129 3.80633 9.60042 5.53846C9.71618 5.80463 9.81468 6.07796 9.89533 6.35676C10.0358 6.80566 9.95351 7.23452 9.6372 7.56985C9.25001 7.98067 8.82469 8.35742 8.39938 8.73017C7.83765 9.22249 7.82428 9.21714 8.12052 9.90652C9.3648 12.8105 11.4602 14.8395 14.4066 15.9933C14.6741 16.0996 14.8446 16.0915 15.0365 15.845C15.3709 15.4122 15.7474 15.006 16.1172 14.5992C16.6341 14.0301 17.2641 13.8531 17.9702 14.1817C18.7841 14.5605 19.6026 14.9412 20.3723 15.3995C21.3513 15.9833 22.2875 16.64 23.2351 17.2766C23.6163 17.5324 23.845 17.9025 23.9607 18.3487C23.9972 18.4686 24.0084 18.5947 23.9937 18.7191C23.979 18.8435 23.9386 18.9635 23.8751 19.0715C23.7126 19.3387 23.5521 19.6206 23.3455 19.8557C21.9725 21.4172 20.3517 22.7424 18.548 23.7782C18.3427 23.8971 18.1046 23.9532 17.9823 24Z" fill="white"/>
</svg>
