<svg width="49" height="48" viewBox="0 0 49 48" fill="none" xmlns="http://www.w3.org/2000/svg">
<path d="M12.225 1.5C12.872 1.65471 13.5471 1.75316 14.173 1.97117C15.622 2.43817 16.93 3.26289 17.976 4.36911C19.022 5.47534 19.7723 6.82737 20.1575 8.30028C20.6215 9.88205 20.6215 11.5638 20.1575 13.1456C20.085 13.3454 20.0773 13.5629 20.1354 13.7674C20.1934 13.9719 20.3143 14.1529 20.481 14.2848C25.0989 18.884 29.7074 23.4972 34.3066 28.1245C34.4169 28.2522 34.563 28.3439 34.7259 28.3878C34.8889 28.4317 35.0613 28.4257 35.2208 28.3706C36.5561 28.0373 37.9422 27.9586 39.3066 28.1385C41.2794 28.4059 43.0959 29.3565 44.4402 30.8249C45.4097 31.8144 46.1366 33.0152 46.5636 34.333C46.9907 35.6508 47.1063 37.0497 46.9015 38.4198C46.8539 38.7831 46.7811 39.1426 46.6835 39.4958C46.6329 39.734 46.5171 39.9534 46.3491 40.1297C46.1811 40.306 45.9674 40.4321 45.7319 40.4941C45.4963 40.5561 45.2483 40.5515 45.0152 40.4807C44.7822 40.41 44.5734 40.2759 44.4121 40.0935C43.2869 38.9965 42.1828 37.8643 41.0576 36.7531C40.6564 36.3008 40.1123 35.9997 39.516 35.8998C38.9197 35.8 38.3072 35.9076 37.7806 36.2046C37.4515 36.3823 37.1659 36.6306 36.9439 36.9315C36.722 37.2325 36.5693 37.5788 36.4967 37.9456C36.4242 38.3125 36.4335 38.6908 36.5242 39.0536C36.6148 39.4164 36.7845 39.7547 37.0211 40.0443C38.1462 41.3101 39.391 42.4634 40.5372 43.687C40.7927 43.9411 40.9749 44.2594 41.0647 44.6083C41.0968 44.7781 41.0942 44.9528 41.057 45.1216C41.0198 45.2904 40.9488 45.45 40.8483 45.5906C40.7477 45.7313 40.6197 45.8501 40.472 45.9399C40.3243 46.0297 40.1599 46.0887 39.9887 46.1132C38.6679 46.4702 37.2824 46.5169 35.9404 46.2497C34.5985 45.9826 33.3366 45.4087 32.2531 44.5731C30.9441 43.6454 29.9161 42.3749 29.2821 40.901C28.6482 39.4271 28.4328 37.807 28.6596 36.2187C28.7229 35.5998 28.8776 34.988 28.955 34.3692C28.9664 34.2824 28.9605 34.1941 28.9375 34.1096C28.9146 34.0251 28.8751 33.946 28.8214 33.8769C24.0816 29.1137 19.3347 24.3528 14.5809 19.5942C14.3488 19.3622 14.1378 19.4536 13.8776 19.4817C12.7543 19.6472 11.6227 19.7505 10.488 19.7911C9.34738 19.7604 8.22534 19.4947 7.19201 19.0107C6.15868 18.5267 5.23626 17.8348 4.48242 16.9782C3.0865 15.5222 2.23468 13.6299 2.07032 11.6195C2.07032 11.5211 2.0211 11.4226 2 11.3312V10.192C2.09142 9.64346 2.1758 9.10196 2.28129 8.56047C2.29675 8.38078 2.34981 8.20634 2.43702 8.04847C2.52423 7.8906 2.64366 7.75283 2.78754 7.64409C2.93143 7.53535 3.09656 7.45806 3.27224 7.41724C3.44792 7.37643 3.63022 7.373 3.80731 7.40717C4.15477 7.4955 4.47112 7.67801 4.72151 7.9346C5.92404 9.0879 7.07031 10.2975 8.28691 11.4508C8.73292 11.8379 9.29998 12.0575 9.89043 12.0716C10.4809 12.0857 11.0578 11.8935 11.5218 11.5281C11.8281 11.2958 12.0794 10.9988 12.2578 10.6583C12.4363 10.3178 12.5375 9.94221 12.5543 9.55815C12.571 9.1741 12.503 8.79107 12.3549 8.43631C12.2069 8.08155 11.9824 7.76379 11.6976 7.50562C10.5865 6.36638 9.44724 5.24824 8.3291 4.12306C8.13902 3.96076 8.00002 3.74688 7.92888 3.50728C7.85775 3.26767 7.85753 3.01258 7.92826 2.77285C7.99917 2.51747 8.14367 2.28861 8.34376 2.11478C8.54384 1.94096 8.79064 1.82987 9.05343 1.79536L10.4177 1.5211L12.225 1.5Z" fill="#3F75BE"/>
<path d="M2.04924 40.4592C2.11957 40.1779 2.18989 39.8966 2.26724 39.6153C2.53987 38.7489 3.02312 37.9636 3.67371 37.3298L15.8537 25.1427C15.9381 25.0583 16.0296 24.988 16.0788 24.9458L23.519 32.379L23.2447 32.6673C19.2363 36.6758 15.2255 40.6889 11.2124 44.7067C10.7034 45.2521 10.087 45.6861 9.40191 45.9814C8.71686 46.2768 7.97807 46.427 7.23209 46.4226C6.02675 46.4096 4.86232 45.9837 3.93316 45.2158C3.004 44.4479 2.36632 43.3845 2.1266 42.2032C2.1266 42.0907 2.06332 41.9781 2.03519 41.8656L2.04924 40.4592ZM8.84249 41.1624C9.06248 41.1565 9.27852 41.1025 9.47535 41.004C9.67219 40.9056 9.84503 40.7652 9.98173 40.5928C12.4852 38.0846 14.9935 35.5764 17.5063 33.0682C18.2096 32.3649 18.3432 31.5351 17.7736 30.9585C17.204 30.3818 16.4093 30.4662 15.6639 31.2116L8.17441 38.7081C8.04443 38.8274 7.92665 38.9593 7.8228 39.1019C7.67103 39.2914 7.5798 39.5222 7.56099 39.7643C7.54218 40.0063 7.59664 40.2485 7.71731 40.4592C7.81818 40.6677 7.97463 40.8443 8.16943 40.9696C8.36423 41.0949 8.58983 41.1641 8.82139 41.1694L8.84249 41.1624Z" fill="#3F75BE"/>
<path d="M43.7229 1.5C44.0464 1.7602 44.4261 1.99226 44.7003 2.27356C45.3051 2.84318 45.8888 3.44093 46.4725 4.03868C46.7409 4.24986 46.9171 4.55669 46.9643 4.89489C47.0115 5.23309 46.9259 5.57644 46.7257 5.85302C45.3684 8.13853 44.0112 10.417 42.6258 12.6885C42.5282 12.8788 42.3853 13.0423 42.2098 13.1647C42.0342 13.287 41.8314 13.3644 41.619 13.3901C41.4066 13.4158 41.1911 13.3889 40.9915 13.312C40.7918 13.235 40.6141 13.1103 40.4739 12.9487C40.2419 12.7236 40.045 12.4705 39.7707 12.1821L31.0154 21.064L27.2742 17.3298L36.0435 8.47608C35.8466 8.30028 35.6779 8.17369 35.5302 8.02601C35.3564 7.88154 35.2224 7.69515 35.1407 7.48445C35.059 7.27376 35.0324 7.04571 35.0634 6.82187C35.0944 6.59803 35.1819 6.38579 35.3177 6.20519C35.4535 6.02459 35.6332 5.8816 35.8396 5.78973C37.436 4.81927 39.0393 3.86287 40.6427 2.90647L42.9985 1.5H43.7229Z" fill="#3F75BE"/>
</svg>
