<svg width="48" height="48" viewBox="0 0 48 48" fill="none" xmlns="http://www.w3.org/2000/svg">
<path d="M16.7457 0.00215428C17.2071 0.00114706 17.6621 0.110145 18.073 0.320105C18.4839 0.530065 18.8387 0.834948 19.1082 1.20945C19.5889 1.86659 20.1974 2.41986 20.8972 2.83607C21.597 3.25228 22.3737 3.52285 23.1807 3.63152C24.2357 3.78701 25.313 3.65604 26.3 3.25235C27.287 2.84867 28.1472 2.18709 28.7907 1.33691C29.9232 -0.0203425 31.0407 -0.312787 32.6232 0.332096C34.9698 1.29338 37.1454 2.62789 39.0657 4.2839C39.6658 4.71837 40.0989 5.34535 40.2927 6.06036C40.4865 6.77537 40.4293 7.5352 40.1307 8.21318C39.8106 9.1079 39.6872 10.0611 39.7687 11.0078C39.8502 11.9545 40.1348 12.8726 40.6031 13.6994C41.0714 14.5263 41.7124 15.2426 42.4825 15.7994C43.2526 16.3563 44.1336 16.7408 45.0657 16.9266C45.7242 17.0226 46.332 17.3347 46.7937 17.8139C47.2553 18.2931 47.5445 18.9121 47.6157 19.5736C48.1409 22.486 48.1257 25.4702 47.5707 28.377C47.459 28.9953 47.1592 29.5639 46.7122 30.0055C46.2652 30.447 45.6928 30.7399 45.0732 30.8441C41.6682 31.3615 39.4032 34.256 39.6132 37.8853C39.6695 38.5463 39.8132 39.1968 40.0407 39.82C40.3124 40.4774 40.3627 41.2053 40.1841 41.8939C40.0055 42.5825 39.6077 43.1942 39.0507 43.6368C37.2224 45.2209 35.1639 46.518 32.9457 47.4836C32.325 47.7846 31.6163 47.851 30.9505 47.6704C30.2847 47.4899 29.7067 47.0746 29.3232 46.5013C26.6232 42.9019 21.8682 42.9544 19.2582 46.6137C18.8906 47.2177 18.3142 47.6657 17.6383 47.8731C16.9623 48.0804 16.2337 48.0325 15.5907 47.7385C13.2213 46.7871 11.0206 45.4603 9.07319 43.8092C8.43702 43.3652 7.98371 42.7054 7.79748 41.9523C7.61126 41.1993 7.70479 40.4043 8.06069 39.715C8.41632 38.8688 8.59293 37.9582 8.5794 37.0404C8.56587 36.1226 8.3625 35.2176 7.98208 34.3822C7.60167 33.5469 7.05244 32.7993 6.36897 32.1865C5.68549 31.5737 4.88256 31.109 4.01069 30.8216C3.68801 30.7343 3.35975 30.6692 3.02819 30.6266C1.36319 30.3717 0.448192 29.3219 0.215692 27.4547C-0.124827 24.7682 -0.0590905 22.0457 0.410693 19.3787C0.505697 18.6962 0.824555 18.0646 1.31726 17.5828C1.80997 17.101 2.44867 16.7964 3.13319 16.7166C4.67846 16.5086 6.09476 15.7441 7.11652 14.5665C8.13827 13.389 8.69532 11.8792 8.68319 10.3203C8.66171 9.46375 8.51516 8.61495 8.24819 7.80076C7.98791 7.13156 7.95097 6.39615 8.1429 5.70424C8.33483 5.01234 8.74534 4.401 9.31319 3.96144C11.2002 2.38832 13.3239 1.12296 15.6057 0.212115C15.8067 0.12807 16.0151 0.0628189 16.2282 0.0171662C16.4002 0.00168199 16.573 -0.003341 16.7457 0.00215428ZM31.9932 23.9978C32.0457 19.4386 28.4532 15.5768 24.1032 15.5244C19.7532 15.4719 16.0407 19.2737 16.0032 23.8779C15.9657 28.482 19.5207 32.3513 23.8932 32.4038C28.2657 32.4563 31.9482 28.7145 31.9932 24.0203V23.9978Z" fill="#3F75BE"/>
</svg>
