<svg width="48" height="49" viewBox="0 0 48 49" fill="none" xmlns="http://www.w3.org/2000/svg">
<path d="M3 17.0671C3.07887 16.8831 3.15774 16.6991 3.24318 16.5216C3.47691 16.0238 3.857 15.6092 4.33266 15.3332C4.80832 15.0572 5.3569 14.933 5.90506 14.9771H13.8381C13.4306 14.6353 13.0954 14.379 12.7799 14.0964C11.9809 13.4423 11.3921 12.5675 11.0871 11.581C10.782 10.5945 10.7742 9.54005 11.0645 8.54913C11.2817 7.56486 11.7893 6.66843 12.5217 5.9759C13.2541 5.28337 14.1775 4.82662 15.1724 4.66476C16.1747 4.41418 17.2289 4.46791 18.2005 4.8191C19.1721 5.1703 20.0171 5.80302 20.6276 6.63652C22.1329 8.48612 23.2062 10.6485 23.7692 12.9659C23.88 13.6294 23.9524 14.2987 23.9861 14.9705C24.019 14.8982 24.0716 14.839 24.0716 14.7799C24.011 13.5639 24.2361 12.3506 24.7288 11.2373C25.4009 9.44347 26.3794 7.77999 27.6207 6.32103C28.274 5.55586 29.1354 4.99694 30.1004 4.71224C31.0654 4.42753 32.0923 4.4293 33.0562 4.71733C34.0076 4.9181 34.8799 5.39183 35.5662 6.08054C36.2526 6.76925 36.7234 7.64309 36.9209 8.59515C37.519 11.0073 36.6974 12.9593 34.7585 14.5104L34.2722 14.8785C34.2722 14.8785 34.2722 14.9245 34.1999 15.0099H42.0869C42.6239 14.9568 43.1643 15.0703 43.6346 15.3348C44.1049 15.5994 44.4825 16.0022 44.7159 16.4888C44.8801 16.8462 44.9717 17.2327 44.9854 17.6258C45.0183 18.9403 44.9854 20.2548 44.9854 21.5693C44.9943 21.9147 44.8669 22.2497 44.6308 22.5018C44.3946 22.754 44.0687 22.903 43.7235 22.9167H26.6349V17.6652H21.3768V22.8904H20.851C15.4681 22.8904 10.0852 22.8904 4.70229 22.8904C4.35002 22.9328 3.99352 22.8596 3.68649 22.6818C3.37946 22.504 3.13852 22.2312 3 21.9045V17.0671ZM20.5421 15.0362C21.2585 14.9902 21.3308 14.9179 21.2914 14.2344C21.2916 14.0705 21.2717 13.9071 21.2322 13.748C20.7516 11.7259 19.8241 9.83714 18.5178 8.22051C18.2798 7.90714 17.9777 7.64814 17.6316 7.4608C17.2856 7.27345 16.9036 7.16207 16.5111 7.13408C16.1186 7.10608 15.7246 7.16213 15.3555 7.29847C14.9864 7.43481 14.6506 7.64832 14.3705 7.92473C14.0871 8.20218 13.865 8.53593 13.7185 8.90446C13.5719 9.27298 13.5042 9.66811 13.5197 10.0644C13.5352 10.4607 13.6335 10.8493 13.8083 11.2053C13.9832 11.5613 14.2307 11.8767 14.5348 12.1312C15.7218 13.1211 17.0717 13.8972 18.5243 14.425C19.175 14.6813 19.8651 14.8391 20.5421 15.0362ZM27.4104 14.9508C27.5889 14.9466 27.7669 14.9291 27.9428 14.8982C30.0206 14.4091 31.9488 13.4236 33.5623 12.026C33.8465 11.7652 34.0739 11.4486 34.2303 11.096C34.3867 10.7433 34.4687 10.3622 34.4712 9.97649C34.4738 9.59074 34.3967 9.20861 34.2449 8.85397C34.0932 8.49933 33.8699 8.1798 33.5891 7.91531C33.3083 7.65081 32.976 7.44704 32.6129 7.31672C32.2498 7.18641 31.8638 7.13233 31.4789 7.15788C31.094 7.18344 30.7185 7.28808 30.3758 7.46525C30.0332 7.64243 29.7307 7.88833 29.4873 8.18763C28.5401 9.33602 27.7975 10.6389 27.2921 12.0392C27.0252 12.7498 26.8293 13.4851 26.7072 14.2344C26.5954 14.9179 26.7269 14.9968 27.4104 14.9574V14.9508Z" fill="#3F75BE"/>
<path d="M21.344 25.4997V43.8568H21.0482H8.38952C7.76891 43.8867 7.15776 43.6959 6.66448 43.3181C6.17119 42.9403 5.82764 42.4 5.69477 41.793C5.65023 41.5946 5.62818 41.3918 5.62905 41.1884C5.62905 36.0618 5.62905 30.9396 5.62905 25.8218C5.62905 25.7166 5.62905 25.6114 5.62905 25.4866L21.344 25.4997Z" fill="#3F75BE"/>
<path d="M42.363 25.5129V25.9861C42.363 30.9812 42.3301 35.9829 42.363 40.9846C42.3808 41.3691 42.3181 41.7531 42.1791 42.112C42.0401 42.4709 41.8277 42.7969 41.5555 43.0691C41.2833 43.3412 40.9574 43.5536 40.5984 43.6927C40.2395 43.8317 39.8556 43.8943 39.4711 43.8765C35.337 43.8765 31.1962 43.8765 27.0555 43.8765H26.6283V25.5129H42.363Z" fill="#3F75BE"/>
</svg>
