<svg width="32" height="32" viewBox="0 0 32 32" fill="none" xmlns="http://www.w3.org/2000/svg">
<path d="M7.49171 9.14185C8.16184 10.7056 8.80333 12.2159 9.45055 13.7328C10.0233 15.0694 10.5961 16.446 11.1688 17.7825C11.3176 18.1607 11.3985 18.5705 11.4064 18.9865C11.4142 19.4026 11.349 19.8161 11.2147 20.2016C10.9372 21.3025 10.3613 22.2688 9.57341 22.9555C8.78549 23.6423 7.82799 24.0125 6.84449 24.0107H4.47899C3.29057 23.9796 2.15903 23.4108 1.3233 22.4245C0.487573 21.4382 0.0130738 20.1116 0 18.7248C0.00700676 18.4626 0.0616719 18.2052 0.160373 17.9696C1.64382 14.4813 3.14446 11.0063 4.62218 7.51797C4.9372 6.75615 5.4985 6.66928 6.12854 6.58908C8.22866 6.32178 10.3288 6.04556 12.4289 5.76044C12.532 5.76044 12.6924 5.65351 12.7153 5.55327C12.8745 4.94379 13.1521 4.38544 13.5267 3.92177C13.9012 3.4581 14.3625 3.10165 14.8746 2.88022C14.8746 2.35897 14.8746 1.84441 14.8746 1.33653C14.8746 0.982059 14.9953 0.642107 15.2101 0.391459C15.4249 0.140811 15.7163 0 16.0201 0C16.3239 0 16.6153 0.140811 16.8301 0.391459C17.0449 0.642107 17.1656 0.982059 17.1656 1.33653V1.50359C17.0951 1.91431 17.099 2.33772 17.1771 2.74657C17.3031 3.04728 17.7499 3.15421 17.9732 3.41483C18.3337 3.81102 18.6687 4.23764 18.9756 4.69122C19.0122 4.76544 19.0677 4.82458 19.1344 4.86048C19.2011 4.89638 19.2757 4.90729 19.3479 4.89169C21.4289 4.61548 23.5137 4.34594 25.6024 4.08309L25.8487 4.03632C26.0089 3.9761 26.1777 3.95341 26.3454 3.96957C26.5132 3.98572 26.6765 4.04039 26.8261 4.13044C26.9756 4.22048 27.1085 4.34413 27.2169 4.49427C27.3254 4.64441 27.4074 4.81807 27.4581 5.0053C28.85 8.26643 30.2246 11.5409 31.6508 14.782C31.8365 15.1888 31.951 15.6347 31.9874 16.0936C32.0238 16.5526 31.9814 17.0154 31.8627 17.4551C31.5896 18.5638 31.0164 19.5397 30.2287 20.2371C29.4411 20.9344 28.4812 21.3158 27.4925 21.3243C26.6849 21.3243 25.8716 21.3243 25.064 21.3243C23.8834 21.2901 22.7598 20.7254 21.9274 19.748C21.0951 18.7706 20.6183 17.456 20.5965 16.0784C20.6075 15.7895 20.672 15.5069 20.7855 15.2498C21.8909 12.6235 23.0135 10.0106 24.1304 7.39768L24.3137 6.95663L23.34 7.06355C22.0914 7.23062 20.837 7.38432 19.5884 7.56475C19.5267 7.58188 19.4691 7.61474 19.4195 7.66095C19.37 7.70717 19.3299 7.7656 19.302 7.83206C19.149 8.38254 18.8986 8.88943 18.5671 9.31994C18.2356 9.75046 17.8303 10.095 17.3776 10.3314C17.3225 10.3668 17.2752 10.4166 17.2395 10.4768C17.2037 10.5371 17.1804 10.6063 17.1714 10.6789C17.1714 16.4126 17.1714 22.1485 17.1714 27.8867C17.1714 27.8867 17.1714 27.8867 17.1714 28.0003H17.5379C19.7201 28.0003 21.8966 28.0003 24.0731 28.0003C24.6488 27.9941 25.2159 28.1635 25.7182 28.4917C26.2205 28.8199 26.6406 29.2955 26.9369 29.8714C27.0722 30.0784 27.1507 30.3284 27.1619 30.5884C27.1732 30.8484 27.1167 31.1063 26.9999 31.3282C26.8926 31.5466 26.7346 31.7252 26.5441 31.8435C26.3536 31.9617 26.1384 32.0147 25.9232 31.9965C19.3173 31.9965 12.7096 31.9965 6.0999 31.9965C5.88657 32.0122 5.67374 31.9579 5.48548 31.8398C5.29721 31.7217 5.14102 31.5445 5.03457 31.3282C4.92065 31.1132 4.86467 30.8632 4.87386 30.6106C4.88305 30.3581 4.95699 30.1145 5.08612 29.9115C5.38059 29.3312 5.79954 28.8504 6.3017 28.5164C6.80386 28.1825 7.37191 28.0069 7.94992 28.007C10.1035 28.007 12.2628 28.007 14.4164 28.007H14.8574V27.5458C14.8574 21.9725 14.8574 16.4037 14.8574 10.8392C14.8742 10.7203 14.8532 10.5983 14.7984 10.4962C14.7436 10.3941 14.6586 10.3188 14.5596 10.2846C13.9257 9.94879 13.3958 9.3935 13.0418 8.69412C13.0044 8.62766 12.9546 8.57203 12.896 8.5315C12.8375 8.49096 12.7717 8.46658 12.7038 8.46023C11.0256 8.65402 9.34746 8.87455 7.66927 9.12849C7.60986 9.12669 7.55043 9.13116 7.49171 9.14185ZM23.5863 14.6483H28.9931L26.2897 8.34662L23.5863 14.6483ZM5.71042 11.0063L3.00699 17.3147H8.41958L5.71042 11.0063ZM14.8746 6.65591C14.8746 6.92025 14.9418 7.17866 15.0676 7.39845C15.1935 7.61824 15.3724 7.78954 15.5817 7.8907C15.7911 7.99186 16.0214 8.01833 16.2436 7.96676C16.4658 7.91519 16.6699 7.7879 16.8301 7.60098C16.9903 7.41406 17.0994 7.17592 17.1436 6.91665C17.1878 6.65739 17.1651 6.38866 17.0784 6.14444C16.9917 5.90022 16.8449 5.69149 16.6565 5.54463C16.4682 5.39777 16.2467 5.31938 16.0201 5.31938C15.716 5.3244 15.4254 5.46621 15.2087 5.71523C14.9921 5.96425 14.8662 6.30124 14.8574 6.65591H14.8746Z" fill="#333333"/>
</svg>
