<svg width="48" height="48" viewBox="0 0 48 48" fill="none" xmlns="http://www.w3.org/2000/svg">
<path d="M12.0352 16.2685C12.9776 18.1532 13.8797 19.9735 14.7898 21.8019C15.5953 23.4128 16.4007 25.072 17.2062 26.6829C17.4154 27.1387 17.5291 27.6326 17.5402 28.1341C17.5513 28.6355 17.4595 29.134 17.2706 29.5986C16.8804 30.9255 16.0706 32.0901 14.9626 32.9178C13.8546 33.7456 12.5081 34.1918 11.1251 34.1896H7.79858C6.12736 34.1521 4.53613 33.4666 3.36089 32.2778C2.18565 31.0891 1.51838 29.4901 1.5 27.8186C1.50985 27.5026 1.58673 27.1924 1.72553 26.9084C3.81163 22.704 5.92189 18.5157 7.99994 14.3113C8.44293 13.393 9.23227 13.2883 10.1183 13.1917C13.0716 12.8695 16.0249 12.5366 18.9782 12.1929C19.1231 12.1929 19.3487 12.0641 19.3809 11.9432C19.6047 11.2086 19.9952 10.5357 20.5219 9.97683C21.0486 9.41798 21.6973 8.98835 22.4174 8.72146C22.4174 8.09322 22.4174 7.47303 22.4174 6.86089C22.4174 6.43366 22.5871 6.02392 22.8892 5.72182C23.1913 5.41972 23.6011 5.25 24.0283 5.25C24.4555 5.25 24.8653 5.41972 25.1674 5.72182C25.4695 6.02392 25.6392 6.43366 25.6392 6.86089V7.06225C25.5399 7.55728 25.5454 8.0676 25.6553 8.56038C25.8325 8.92283 26.4607 9.0517 26.7749 9.36582C27.2818 9.84334 27.7529 10.3575 28.1844 10.9042C28.236 10.9937 28.314 11.065 28.4078 11.1082C28.5015 11.1515 28.6064 11.1647 28.7079 11.1459C31.6344 10.8129 34.5662 10.4881 37.5034 10.1713L37.8497 10.1149C38.075 10.0423 38.3124 10.015 38.5483 10.0344C38.7841 10.0539 39.0138 10.1198 39.2242 10.2283C39.4345 10.3369 39.6213 10.4859 39.7738 10.6668C39.9264 10.8478 40.0416 11.0571 40.113 11.2828C42.0702 15.2133 44.0033 19.16 46.0089 23.0664C46.2701 23.5567 46.4311 24.0941 46.4822 24.6473C46.5334 25.2005 46.4738 25.7583 46.3069 26.2882C45.9228 27.6246 45.1168 28.8008 44.0092 29.6413C42.9015 30.4818 41.5517 30.9415 40.1614 30.9517C39.0257 30.9517 37.8819 30.9517 36.7463 30.9517C35.0861 30.9105 33.506 30.2299 32.3354 29.0519C31.1649 27.8738 30.4944 26.2894 30.4638 24.629C30.4793 24.2808 30.57 23.9401 30.7296 23.6302C32.2841 20.4649 33.8628 17.3156 35.4334 14.1663L35.6911 13.6347L34.3219 13.7636C32.566 13.9649 30.8021 14.1502 29.0462 14.3676C28.9595 14.3883 28.8784 14.4279 28.8087 14.4836C28.7391 14.5393 28.6827 14.6097 28.6435 14.6898C28.4282 15.3533 28.0761 15.9642 27.61 16.4831C27.1438 17.002 26.5739 17.4173 25.9372 17.7022C25.8598 17.7448 25.7933 17.8049 25.743 17.8775C25.6927 17.9502 25.6599 18.0335 25.6472 18.121C25.6472 25.0317 25.6472 31.9451 25.6472 38.8612C25.6472 38.8612 25.6472 38.8612 25.6472 38.9981H26.1627C29.2315 38.9981 32.2922 38.9981 35.3528 38.9981C36.1624 38.9907 36.9599 39.1949 37.6662 39.5905C38.3726 39.986 38.9634 40.5593 39.3801 41.2534C39.5703 41.5029 39.6806 41.8042 39.6964 42.1176C39.7122 42.431 39.6328 42.7418 39.4687 43.0093C39.3177 43.2725 39.0955 43.4878 38.8277 43.6302C38.5598 43.7727 38.2571 43.8367 37.9544 43.8147C28.665 43.8147 19.3728 43.8147 10.078 43.8147C9.778 43.8336 9.4787 43.7682 9.21395 43.6258C8.9492 43.4835 8.72956 43.2699 8.57986 43.0093C8.41967 42.7501 8.34094 42.4488 8.35386 42.1443C8.36679 41.8399 8.47077 41.5464 8.65235 41.3017C9.06646 40.6023 9.6556 40.0228 10.3618 39.6203C11.0679 39.2177 11.8668 39.0061 12.6796 39.0062C15.708 39.0062 18.7446 39.0062 21.773 39.0062H22.3932V38.4504C22.3932 31.733 22.3932 25.021 22.3932 18.3143C22.4169 18.171 22.3874 18.024 22.3102 17.9009C22.2331 17.7777 22.1137 17.687 21.9744 17.6458C21.083 17.2411 20.3378 16.5718 19.84 15.7288C19.7875 15.6487 19.7174 15.5817 19.635 15.5328C19.5527 15.484 19.4602 15.4546 19.3648 15.4469C17.0048 15.6805 14.6449 15.9463 12.2849 16.2524C12.2014 16.2502 12.1178 16.2556 12.0352 16.2685ZM34.6682 22.9053H42.2716L38.4699 15.31L34.6682 22.9053ZM9.53028 18.5157L5.72858 26.1191H13.34L9.53028 18.5157ZM22.4174 13.2722C22.4174 13.5908 22.5119 13.9023 22.6889 14.1672C22.8659 14.4321 23.1175 14.6386 23.4118 14.7605C23.7062 14.8824 24.0301 14.9143 24.3426 14.8522C24.655 14.79 24.9421 14.6366 25.1674 14.4113C25.3926 14.186 25.5461 13.899 25.6082 13.5865C25.6704 13.274 25.6385 12.9501 25.5166 12.6558C25.3946 12.3614 25.1882 12.1098 24.9233 11.9328C24.6583 11.7558 24.3469 11.6613 24.0283 11.6613C23.6007 11.6674 23.1919 11.8383 22.8873 12.1384C22.5826 12.4386 22.4057 12.8448 22.3932 13.2722H22.4174Z" fill="#3F75BE"/>
</svg>
