<svg width="32" height="34" viewBox="0 0 32 34" fill="none" xmlns="http://www.w3.org/2000/svg">
<path d="M19.7518 19.9359C19.787 19.9909 19.8105 20.0889 19.8536 20.0968C24.1608 20.9087 26.0599 24.8036 29.0398 27.3413C30.0265 28.1729 30.9584 29.0671 32 30.0085L28.6874 33.0013C25.7937 30.087 22.7551 27.0118 19.7244 23.9328C19.6037 23.7784 19.5194 23.5988 19.4777 23.4072C18.6946 20.8734 18.6946 20.8734 16.2943 22.1756C14.1669 23.3078 11.729 23.7139 9.35031 23.3324C6.97166 22.9508 4.78219 21.8024 3.11414 20.0615C1.44868 18.2952 0.38866 16.0431 0.0879926 13.6322C-0.212675 11.2214 0.261671 8.7773 1.44215 6.65489C2.64739 4.52293 4.52003 2.84791 6.77068 1.88869C9.02134 0.92947 11.5247 0.739438 13.894 1.34796C18.769 2.66979 22.2735 6.85886 22.066 11.903C21.9524 14.5819 20.8717 17.2178 20.2295 19.8732L19.7518 19.9359ZM11.0786 20.5949C15.566 20.6224 19.3367 16.8255 19.3563 12.2638C19.3439 10.6323 18.8499 9.04082 17.9365 7.68989C17.0231 6.33897 15.731 5.28896 14.2231 4.67207C12.7152 4.05519 11.0587 3.899 9.46233 4.22318C7.86596 4.54737 6.40102 5.33742 5.25197 6.49388C4.10292 7.65033 3.32112 9.12148 3.00502 10.7221C2.68893 12.3227 2.85267 13.9812 3.47561 15.4888C4.09856 16.9964 5.15288 18.2857 6.5058 19.1943C7.85872 20.1029 9.44976 20.5902 11.0786 20.5949Z" fill="#333333"/>
</svg>
