<svg width="32" height="28" viewBox="0 0 32 28" fill="none" xmlns="http://www.w3.org/2000/svg">
<path d="M32 4.96484C31.7048 5.96177 31.4097 6.95871 31.1245 7.93072C30.164 11.2538 29.2084 14.577 28.2579 17.9001C28.2207 18.1457 28.0882 18.3669 27.8889 18.5161C27.6895 18.6653 27.4394 18.7305 27.1923 18.6976C21.9193 18.6976 16.6463 18.6976 11.3733 18.6976C11.2554 18.6888 11.1377 18.7167 11.0364 18.7774C10.9352 18.8381 10.8553 18.9287 10.808 19.0366C10.6995 19.1965 10.6399 19.3843 10.6365 19.5773C10.6331 19.7703 10.6859 19.9602 10.7887 20.1238C10.8915 20.2874 11.0397 20.4178 11.2154 20.4991C11.3911 20.5804 11.5867 20.6092 11.7785 20.5818C16.9364 20.5818 22.0944 20.5818 27.2573 20.5818C27.4214 20.5703 27.5856 20.6021 27.7335 20.674C27.8813 20.7458 28.0075 20.8553 28.0993 20.9913C28.1912 21.1273 28.2454 21.285 28.2566 21.4485C28.2677 21.612 28.2354 21.7756 28.1628 21.9227C28.0817 22.0841 27.9542 22.2178 27.7964 22.3066C27.6387 22.3954 27.4579 22.4353 27.2773 22.4212C26.2267 22.4212 25.1761 22.4212 24.1205 22.4212C24.866 22.5874 25.5163 23.0385 25.9316 23.6773C26.1386 23.9888 26.2796 24.3392 26.3458 24.7069C26.4121 25.0746 26.4022 25.452 26.3168 25.8157C26.1704 26.4573 25.8024 27.0272 25.2772 27.4259C24.752 27.8246 24.1028 28.0268 23.4432 27.9971C22.7835 27.9675 22.1553 27.7078 21.6683 27.2635C21.1813 26.8192 20.8664 26.2186 20.7786 25.5665C20.6896 24.8491 20.8779 24.1248 21.3053 23.5406C21.7327 22.9565 22.3672 22.5562 23.0799 22.4212H14.5901C14.9789 22.4937 15.3487 22.6442 15.6773 22.8635C16.0058 23.0829 16.2861 23.3666 16.5012 23.6973C16.7088 24.015 16.848 24.3722 16.91 24.7463C16.972 25.1204 16.9554 25.5032 16.8614 25.8706C16.7027 26.5064 16.3257 27.0668 15.7958 27.4547C15.2659 27.8427 14.6165 28.0337 13.9601 27.9946C13.3038 27.9555 12.6818 27.6889 12.202 27.2409C11.7222 26.7928 11.4149 26.1917 11.3333 25.5416C11.2527 24.8357 11.4364 24.125 11.849 23.5455C12.2616 22.9661 12.8742 22.5587 13.5695 22.4012C12.9742 22.4012 12.3839 22.4012 11.7935 22.4012C11.3245 22.4454 10.8518 22.3698 10.4203 22.1814C9.98872 21.993 9.61248 21.6981 9.32712 21.3246C8.98336 20.9228 8.77012 20.4265 8.71563 19.9013C8.66113 19.3762 8.76796 18.8469 9.02195 18.3836C9.15402 18.1459 9.2335 17.8828 9.25507 17.612C9.27665 17.3412 9.23981 17.0689 9.14703 16.8134C7.73289 11.9318 6.3321 7.04677 4.94464 2.15846C4.93978 2.11416 4.92593 2.07131 4.90394 2.0325C4.88195 1.99369 4.85227 1.95974 4.81672 1.93271C4.78116 1.90567 4.74047 1.88611 4.6971 1.87522C4.65372 1.86433 4.60859 1.86233 4.56442 1.86935C3.38875 1.86935 2.21308 1.86935 1.03741 1.86935C0.906425 1.88287 0.774059 1.86882 0.648867 1.82813C0.523675 1.78745 0.408455 1.72102 0.310662 1.63315C0.212869 1.54528 0.134677 1.43793 0.0811618 1.31805C0.0276471 1.19816 0 1.06842 0 0.937215C0 0.806009 0.0276471 0.676264 0.0811618 0.556381C0.134677 0.436498 0.212869 0.329148 0.310662 0.241279C0.408455 0.153411 0.523675 0.0869836 0.648867 0.0462953C0.774059 0.00560711 0.906425 -0.00843652 1.03741 0.00507834H5.48494C5.72634 -0.0198582 5.96821 0.0476624 6.16147 0.193932C6.35473 0.340201 6.48489 0.55426 6.52553 0.792658C6.80569 1.76467 7.08085 2.73668 7.36601 3.73861H7.77124C15.4623 3.73861 23.15 3.73861 30.8343 3.73861C31.0822 3.71356 31.3313 3.77152 31.5424 3.90331C31.7535 4.03511 31.9145 4.23323 32 4.46637V4.96484Z" fill="#333333"/>
</svg>
