<svg width="48" height="48" viewBox="0 0 48 48" fill="none" xmlns="http://www.w3.org/2000/svg">
<path d="M22.306 47.9475C21.466 47.82 20.6185 47.7225 19.7785 47.5725C16.1585 46.9536 12.7357 45.4889 9.78854 43.2975C9.68354 43.215 9.57103 43.1475 9.39853 43.035C9.39853 43.47 9.36105 43.8375 9.32355 44.1975C9.287 44.5551 9.11521 44.8853 8.84331 45.1205C8.57141 45.3557 8.21993 45.4782 7.86074 45.4629C7.50156 45.4475 7.16178 45.2956 6.9109 45.0381C6.66003 44.7806 6.517 44.437 6.51105 44.0775C6.51105 42.7275 6.55603 41.37 6.60853 40.0125C6.60628 39.6417 6.74148 39.2832 6.98801 39.0062C7.23455 38.7292 7.57497 38.5533 7.94355 38.5125L11.791 37.8C12.1458 37.7404 12.5099 37.8178 12.8096 38.0167C13.1094 38.2156 13.3223 38.5209 13.4053 38.8709C13.4882 39.2209 13.435 39.5894 13.2565 39.9016C13.0779 40.2139 12.7873 40.4465 12.4436 40.5525C12.0536 40.65 11.656 40.71 11.116 40.815C11.866 41.3025 12.496 41.76 13.171 42.165C16.6121 44.2555 20.5928 45.2859 24.616 45.1275C29.1797 45.0047 33.5799 43.4022 37.1537 40.5615C40.7276 37.7208 43.2816 33.7957 44.431 29.3775C45.4938 25.4282 45.3633 21.2527 44.056 17.3775C43.9782 17.1958 43.937 17.0006 43.9349 16.803C43.9328 16.6054 43.9697 16.4093 44.0435 16.226C44.1174 16.0427 44.2268 15.8758 44.3654 15.7349C44.504 15.594 44.669 15.4819 44.851 15.405C45.0262 15.3345 45.214 15.3013 45.4027 15.3075C45.5914 15.3137 45.7767 15.3592 45.9468 15.4411C46.1169 15.523 46.268 15.6394 46.3906 15.783C46.5131 15.9266 46.6044 16.0941 46.6585 16.275C47.071 17.82 47.4085 19.38 47.746 20.9475C47.851 21.4275 47.881 21.9225 47.9485 22.4475V25.5525C47.9114 25.6858 47.8814 25.821 47.8585 25.9575C47.5985 29.5262 46.5042 32.984 44.6635 36.0525C42.9344 39.0599 40.5633 41.6488 37.719 43.6349C34.8748 45.6209 31.6275 46.9552 28.2085 47.5425C27.3685 47.7 26.521 47.79 25.6735 47.9175L22.306 47.9475Z" fill="#3F75BE"/>
<path d="M10.006 24.0075C10.0104 21.2445 10.8336 18.5447 12.3714 16.2491C13.9093 13.9536 16.0928 12.1652 18.6464 11.1099C21.2 10.0546 24.0091 9.77964 26.7188 10.3198C29.4286 10.8599 31.9175 12.1909 33.8713 14.1447C35.8251 16.0985 37.1561 18.5874 37.6962 21.2972C38.2364 24.0069 37.9614 26.816 36.9061 29.3696C35.8508 31.9232 34.0624 34.1068 31.7669 35.6446C29.4713 37.1825 26.7715 38.0056 24.0085 38.01C20.2984 37.9982 16.7437 36.5191 14.1203 33.8957C11.4969 31.2723 10.0178 27.7176 10.006 24.0075ZM22.591 17.7525C22.0588 18.105 21.557 18.5013 21.091 18.9375C20.5858 19.4657 20.2507 20.1333 20.1291 20.854C20.0074 21.5747 20.1047 22.3153 20.4085 22.98C20.6818 23.674 21.1532 24.2722 21.764 24.7003C22.3747 25.1284 23.0979 25.3673 23.8435 25.3875C24.0136 25.3893 24.1827 25.4146 24.346 25.4625C24.5829 25.545 24.7834 25.7079 24.9127 25.9229C25.0419 26.1379 25.0917 26.3915 25.0534 26.6394C25.015 26.8873 24.891 27.114 24.7028 27.2799C24.5146 27.4458 24.2742 27.5405 24.0235 27.5475C23.2135 27.5475 22.4035 27.5475 21.5935 27.5475C21.4012 27.5334 21.208 27.5592 21.0261 27.6231C20.8442 27.687 20.6774 27.7877 20.5362 27.919C20.395 28.0502 20.2823 28.2092 20.2053 28.386C20.1282 28.5627 20.0885 28.7535 20.0885 28.9463C20.0885 29.1391 20.1282 29.3298 20.2053 29.5066C20.2823 29.6834 20.395 29.8423 20.5362 29.9736C20.6774 30.1049 20.8442 30.2056 21.0261 30.2695C21.208 30.3334 21.4012 30.3591 21.5935 30.345H22.561C22.561 30.66 22.561 30.9375 22.561 31.215C22.5769 31.5699 22.7269 31.9055 22.9807 32.154C23.2345 32.4026 23.5731 32.5456 23.9282 32.5541C24.2833 32.5627 24.6285 32.4362 24.8939 32.2002C25.1594 31.9642 25.3254 31.6362 25.3585 31.2825C25.3814 31.0331 25.3814 30.782 25.3585 30.5325C25.3314 30.3978 25.3546 30.2578 25.4236 30.1389C25.4927 30.0201 25.6029 29.9307 25.7335 29.8875C26.4601 29.5174 27.0507 28.9263 27.4202 28.1994C27.7897 27.4724 27.9192 26.647 27.79 25.8418C27.6608 25.0366 27.2796 24.2931 26.7012 23.7183C26.1228 23.1434 25.3769 22.7668 24.571 22.6425C24.3385 22.6425 24.106 22.5825 23.8735 22.56C23.6008 22.5344 23.347 22.4094 23.1603 22.2089C22.9736 22.0085 22.8671 21.7464 22.861 21.4725C22.8585 21.2041 22.959 20.9449 23.1417 20.7482C23.3244 20.5515 23.5756 20.4323 23.8435 20.415C24.6985 20.415 25.561 20.415 26.416 20.415C26.6071 20.4236 26.798 20.3928 26.9767 20.3245C27.1554 20.2562 27.3182 20.1519 27.4548 20.018C27.5915 19.8841 27.6992 19.7236 27.7712 19.5463C27.8432 19.3691 27.8779 19.1789 27.8733 18.9876C27.8686 18.7964 27.8247 18.6081 27.7442 18.4345C27.6637 18.261 27.5484 18.1058 27.4053 17.9787C27.2623 17.8516 27.0947 17.7553 26.9129 17.6957C26.7311 17.6362 26.5389 17.6147 26.3485 17.6325H25.366C25.366 17.2875 25.366 17.0025 25.366 16.725C25.3801 16.5327 25.3543 16.3396 25.2904 16.1577C25.2265 15.9758 25.1258 15.809 24.9945 15.6678C24.8633 15.5265 24.7043 15.4139 24.5275 15.3368C24.3508 15.2598 24.16 15.22 23.9672 15.22C23.7744 15.22 23.5837 15.2598 23.4069 15.3368C23.2301 15.4139 23.0712 15.5265 22.9399 15.6678C22.8086 15.809 22.7079 15.9758 22.644 16.1577C22.5801 16.3396 22.5544 16.5327 22.5685 16.725C22.576 17.1225 22.591 17.4975 22.591 17.7525Z" fill="#3F75BE"/>
<path d="M38.5886 4.93505C38.5886 4.50005 38.5886 4.18505 38.5886 3.81755C38.5895 3.63409 38.6271 3.45268 38.6994 3.28403C38.7716 3.11538 38.8769 2.96292 39.009 2.83567C39.1412 2.70841 39.2975 2.60894 39.4687 2.54314C39.64 2.47733 39.8227 2.44653 40.0061 2.45255C40.1905 2.45254 40.3732 2.48911 40.5434 2.56015C40.7136 2.63119 40.8681 2.73529 40.9978 2.86642C41.1275 2.99755 41.23 3.15311 41.2992 3.3241C41.3684 3.49508 41.403 3.67809 41.4011 3.86255C41.4011 5.23505 41.4011 6.60755 41.4011 7.97255C41.4065 8.32881 41.2851 8.67539 41.0583 8.95024C40.8316 9.22508 40.5144 9.41024 40.1636 9.47255C38.8061 9.76505 37.4486 10.035 36.0911 10.305C35.7554 10.34 35.4185 10.2521 35.1427 10.0577C34.8669 9.86326 34.6709 9.57543 34.5911 9.24755C34.5096 8.89108 34.5675 8.51695 34.753 8.20182C34.9384 7.88668 35.2374 7.65439 35.5886 7.55255C35.9861 7.45505 36.3911 7.38005 36.8861 7.27505C35.708 6.35024 34.43 5.56032 33.076 4.92005C29.6192 3.25677 25.7705 2.57942 21.9536 2.96255C18.7961 3.26978 15.7483 4.28334 13.0357 5.92819C10.3231 7.57303 8.01523 9.80701 6.28305 12.4647C4.55088 15.1224 3.43875 18.1357 3.02902 21.2814C2.61928 24.4272 2.92244 27.6248 3.91605 30.6375C3.99892 30.8184 4.04384 31.0143 4.04802 31.2132C4.0522 31.4121 4.01554 31.6097 3.94033 31.7938C3.86512 31.978 3.75295 32.1448 3.61074 32.2839C3.46854 32.423 3.29934 32.5314 3.11356 32.6026C2.93053 32.6732 2.73454 32.704 2.53866 32.6929C2.34278 32.6818 2.15151 32.6291 1.97762 32.5382C1.80373 32.4474 1.65121 32.3205 1.53023 32.1661C1.40925 32.0116 1.32261 31.8331 1.27606 31.6425C0.847649 30.1969 0.507038 28.7268 0.256067 27.24C-0.377681 23.0654 0.170515 18.7966 1.83856 14.9175C5.18356 7.17755 10.9661 2.25755 19.246 0.532547C22.5213 -0.18079 25.9122 -0.177463 29.186 0.5423C32.4599 1.26206 35.5395 2.68124 38.2136 4.70255L38.5886 4.93505Z" fill="#3F75BE"/>
</svg>
