<svg width="32" height="32" viewBox="0 0 32 32" fill="none" xmlns="http://www.w3.org/2000/svg">
<path d="M14.8144 31.9991C14.1252 31.9121 13.432 31.8529 12.7477 31.7442C8.81518 31.1162 5.46108 29.5151 2.68538 26.941C1.73938 26.0649 0.900266 25.1013 0.182201 24.0663C-0.0122205 23.7792 -0.0676303 23.4896 0.0976282 23.1799C1.69966 20.1868 4.28353 18.2532 7.88033 17.4217C8.30787 17.3233 8.74293 17.2532 9.18199 17.212C9.67485 17.1659 10.0666 17.4112 10.4525 17.647C11.9994 18.6081 13.8288 19.1397 15.7116 19.1752C17.6889 19.2292 19.5767 18.8456 21.1992 17.8314C22.1528 17.2347 23.0559 17.1529 24.1155 17.406C27.6987 18.2648 30.2965 20.1845 31.9089 23.1651C31.978 23.2855 32.0088 23.4207 31.9978 23.5557C31.9869 23.6907 31.9346 23.8204 31.8467 23.9306C30.0347 26.5688 27.6277 28.6511 24.5685 30.1063C22.5769 31.0596 20.3985 31.6603 18.1526 31.8756C17.8075 31.9086 17.4644 31.9582 17.1202 31.9999L14.8144 31.9991Z" fill="#3F75BE"/>
<path d="M16.0209 2.19107e-05C21.1371 0.00698051 25.3094 3.75941 25.2919 8.33903C25.2754 12.8995 21.0837 16.6319 15.9888 16.6241C10.894 16.6163 6.69449 12.8482 6.71393 8.27902C6.73338 3.70983 10.9183 -0.010416 16.0209 2.19107e-05Z" fill="#3F75BE"/>
</svg>
