<svg width="32" height="32" viewBox="0 0 32 32" fill="none" xmlns="http://www.w3.org/2000/svg">
<path d="M28.0636 32H2.51204C2.49497 31.9889 2.47961 31.9693 2.46083 31.9667C0.976573 31.7174 -0.0143525 30.405 0.000157238 28.8313C0.0368582 23.9889 0.0129594 19.1465 0.0129594 14.3042C0.0129594 13.3982 0.00357076 12.4914 0.0129594 11.5863C0.0317366 10.3183 0.840865 9.19541 2.06821 8.88375C2.68215 8.73405 3.31607 8.68361 3.94594 8.73432C4.97954 8.81117 5.84159 8.50974 6.72497 7.98546C10.9789 5.46054 15.2661 2.99197 19.5387 0.497782C20.4366 -0.026501 21.355 -0.176784 22.3348 0.241618C22.9946 0.525106 23.4512 1.01865 23.8012 1.63003C25.0942 3.89537 26.3959 6.15559 27.6795 8.42777C27.7305 8.53269 27.8071 8.62302 27.9023 8.69035C27.9975 8.75768 28.1082 8.79983 28.2241 8.81287C29.3669 8.99816 30.3954 10.0544 30.4902 11.1995C30.5542 11.9859 30.5414 12.7791 30.5508 13.569C30.5584 14.2811 30.2819 14.5544 29.5777 14.5552C27.9851 14.5552 26.3924 14.5552 24.7981 14.5552C24.0276 14.5541 23.2639 14.6989 22.5474 14.9822C19.0949 16.3262 17.8061 20.7817 20.0133 23.7515C21.2227 25.379 22.8572 26.1637 24.8672 26.18C26.4701 26.1936 28.0739 26.18 29.6768 26.18C30.2571 26.18 30.5439 26.4609 30.549 27.0338C30.5559 27.6999 30.5644 28.3667 30.549 29.0328C30.5251 29.9994 30.182 30.8379 29.3703 31.3929C28.9837 31.6653 28.504 31.8036 28.0636 32ZM22.3937 2.17993C21.9823 1.45328 21.1596 1.2603 20.3854 1.71115C16.4781 3.98361 12.5727 6.25892 8.66928 8.53707C8.60782 8.57293 8.55405 8.62246 8.42688 8.71638C9.31794 8.71638 10.1177 8.72492 10.9174 8.71041C11.1015 8.70578 11.2817 8.65624 11.4423 8.5661C15.0015 6.50255 18.5578 4.43389 22.1112 2.3601C22.2085 2.30374 22.3007 2.2397 22.3937 2.17993ZM24.5932 5.96774L20.009 8.64124L20.0363 8.69845H26.1543L24.5932 5.96774Z" fill="#3F75BE"/>
<path d="M32.0002 22.9369C31.7791 23.3305 31.6127 23.7694 31.3251 24.105C30.9213 24.5746 30.335 24.7377 29.7205 24.7394C28.0663 24.7454 26.4122 24.7548 24.7581 24.7394C22.5083 24.7164 20.6988 23.1623 20.4052 20.9252C20.2497 19.8036 20.5407 18.6658 21.2154 17.7568C21.8902 16.8477 22.8949 16.2402 24.013 16.0649C24.2902 16.0239 24.5701 16.0033 24.8503 16.0034C26.4421 15.9974 28.0339 16.0034 29.6257 16.0034C30.8326 16.0034 31.5461 16.5157 31.937 17.6548C31.9536 17.6902 31.9748 17.7232 32.0002 17.753V22.9369ZM24.7334 18.9288C24.5437 18.9255 24.3553 18.9606 24.1795 19.0317C24.0036 19.1029 23.8439 19.2088 23.7098 19.3431C23.5758 19.4774 23.4701 19.6373 23.3992 19.8133C23.3282 19.9893 23.2935 20.1778 23.2969 20.3676C23.2967 20.5574 23.3339 20.7455 23.4065 20.9209C23.479 21.0964 23.5855 21.2558 23.7197 21.39C23.8539 21.5242 24.0133 21.6306 24.1887 21.7031C24.3641 21.7755 24.5521 21.8127 24.7419 21.8123C25.12 21.8026 25.4798 21.648 25.7472 21.3804C26.0145 21.1127 26.1689 20.7526 26.1784 20.3744C26.1789 20.1844 26.1419 19.9962 26.0695 19.8205C25.9971 19.6449 25.8907 19.4853 25.7564 19.3509C25.6221 19.2166 25.4626 19.1101 25.287 19.0377C25.1115 18.9652 24.9233 18.9282 24.7334 18.9288Z" fill="#3F75BE"/>
</svg>
