<svg width="36" height="48" viewBox="0 0 36 48" fill="none" xmlns="http://www.w3.org/2000/svg">
<path d="M16.547 48C15.6695 47.8501 14.7695 47.7451 13.907 47.5353C11.1123 46.9396 8.50464 45.6729 6.30937 43.8445C4.1141 42.0161 2.3972 39.6811 1.30702 37.0411C0.295498 34.7444 -0.139583 32.2356 0.0395412 29.7327C0.199724 28.1152 0.609578 26.5323 1.25454 25.0403C2.80809 21.2635 4.79379 17.6791 7.17203 14.3587C10.007 10.2885 12.9845 6.31572 15.8945 2.29046C16.307 1.72078 16.7045 1.13608 17.072 0.536416C17.1618 0.379312 17.2902 0.24769 17.4451 0.153961C17.5999 0.0602326 17.7761 0.00749358 17.957 0.000741446C18.1379 -0.00601068 18.3176 0.0334458 18.479 0.11537C18.6404 0.197295 18.7783 0.318984 18.8795 0.468956C19.937 1.78073 20.9945 3.10001 22.022 4.44176C25.6521 9.07944 28.9479 13.969 31.8845 19.0736C33.1461 21.3075 34.2271 23.6387 35.117 26.0447C36.39 29.4993 36.2826 33.3113 34.817 36.6888C32.3945 42.603 27.9245 46.246 21.527 47.6477C20.8445 47.7976 20.1395 47.8726 19.442 47.9775L16.547 48Z" fill="#3F75BE"/>
</svg>
